<?xml version="1.0" encoding="utf-8"?>
<!-- Generator: Adobe Illustrator 16.0.0, SVG Export Plug-In . SVG Version: 6.00 Build 0)  -->
<!DOCTYPE svg PUBLIC "-//W3C//DTD SVG 1.1//EN" "http://www.w3.org/Graphics/SVG/1.1/DTD/svg11.dtd">
<svg version="1.1" id="Layer_1" xmlns="http://www.w3.org/2000/svg" xmlns:xlink="http://www.w3.org/1999/xlink" x="0px" y="0px"
	 width="512px" height="512px" viewBox="0 0 512 512" enable-background="new 0 0 512 512" xml:space="preserve">
<path fill-rule="evenodd" clip-rule="evenodd" fill="#088488" d="M41.101,64.853c-0.346,0.559,0.064,0.985,0.283,1.417
	c4.36,8.587,8.726,17.17,13.104,25.748c2.097,4.108,4.201,8.214,6.336,12.303c4.99,9.556,9.986,19.11,15.008,28.649
	c4.162,7.907,8.328,15.812,12.558,23.683c5.812,10.815,11.652,21.616,17.541,32.39c6.359,11.634,12.763,23.243,19.194,34.837
	c4.306,7.763,8.665,15.498,13.068,23.207c0.772,1.351,0.973,2.511,0.45,4.036c-4.438,12.919-8.995,25.794-14.034,38.494
	c-1.935,4.875-3.901,9.736-5.856,14.603c-0.192,0.477-0.316,0.993-0.717,1.361c-2.135-1.768-3.941-3.852-5.824-5.877
	c-3.409-3.668-6.842-7.315-10.252-10.985c-2.938-3.162-5.862-6.338-8.817-9.483c-3.548-3.776-7.067-7.58-10.624-11.349
	c-2.924-3.098-5.79-6.249-8.697-9.359c-3.381-3.617-6.749-7.247-10.138-10.855c-2.995-3.189-5.934-6.431-8.944-9.603
	c-3.607-3.801-7.096-7.712-10.745-11.471c-2.407-2.481-4.572-5.189-7.129-7.528c-0.292-0.268-0.464-0.663-0.744-0.949
	c-1.154-1.181-2.05-2.652-3.688-3.29c0-55.283,0-110.567,0-165.85c0.095,0.009,0.182,0.042,0.26,0.097
	c1.186,2.251,2.372,4.502,3.557,6.753c0.012,0.305,0.097,0.575,0.358,0.762l-0.002-0.01c0.007,0.288,0.107,0.53,0.349,0.701l0-0.009
	c0,0.291,0.095,0.533,0.353,0.692l-0.005-0.005c0.129,0.111,0.257,0.222,0.386,0.333c0.063,0.039,0.132,0.067,0.205,0.083
	c-0.006,0.092-0.004,0.185,0.005,0.277c-0.028,0.044-0.089,0.104-0.078,0.127c0.041,0.081,0.106,0.149,0.163,0.222l0.012,0.018
	c0.091,1.622,0.987,2.882,1.861,4.152c0.16,0.265,0.2,0.632,0.598,0.688l-0.034-0.046c-0.018,0.256-0.012,0.49,0.358,0.389
	l-0.014-0.02c-0.21,0.408-0.169,0.688,0.365,0.716L41.101,64.853z"/>
<path fill-rule="evenodd" clip-rule="evenodd" fill="#099A9E" d="M381.725,246.248c0.142-1.077,0.877-1.867,1.388-2.751
	c7.874-13.619,15.505-27.372,22.993-41.207c5.897-10.896,11.734-21.823,17.446-32.817c4.119-7.927,8.212-15.867,12.33-23.794
	c10.952-21.08,21.415-42.406,32.067-63.636c2.274-4.533,4.452-9.114,6.66-13.681c0.208-0.431,0.65-0.834,0.327-1.4L474.9,66.99
	c0.521-0.041,0.641-0.284,0.366-0.726l-0.019,0.036c0.518-0.044,0.64-0.287,0.365-0.729l-0.02,0.027
	c0.399,0.15,0.362-0.14,0.379-0.376l-0.031,0.044c0.372-0.089,0.393-0.461,0.569-0.708c1.217-1.905,2.263-3.893,2.918-6.069
	l-0.007,0.012c0.212-0.253,0.341-0.54,0.356-0.873l-0.007,0.012c0.271-0.158,0.327-0.424,0.354-0.705l-0.008,0.012
	c0.119-0.136,0.238-0.272,0.356-0.409c1.153-2.289,2.307-4.577,3.46-6.866c0,5.54,0,11.08,0,16.62
	c-0.727,1.599-0.31,3.254-0.242,4.892c-0.059,2.527-0.116,5.054-0.175,7.581c-0.553,1.181-0.232,2.426-0.27,3.645
	c0,0,0.017,0.019,0.017,0.021c-0.637,2.474-0.514,5.01-0.63,7.526c-0.104,1.774-0.1,3.545-0.323,5.325
	c-0.408,3.248-0.519,6.532-0.821,9.795c-0.579,6.239-1.188,12.475-1.988,18.691c-0.882,6.845-1.63,13.708-2.614,20.538
	c-1.436,9.964-3.011,19.908-4.764,29.823c-1.595,9.011-3.313,17.998-5.074,26.978c-1.062,5.413-2.5,10.739-3.567,16.148
	c-0.702,0.101-1.084,0.593-1.431,1.146c-0.734,1.171-1.491,2.33-2.227,3.501c-3.156,5.026-6.313,10.052-9.46,15.085
	c-3.878,6.206-7.741,12.421-11.618,18.627c-3.054,4.887-6.124,9.763-9.177,14.649c-3.848,6.158-7.68,12.324-11.527,18.481
	c-3.084,4.936-6.185,9.86-9.269,14.796c-3.816,6.108-7.624,12.223-11.435,18.335c-2.622,4.204-5.241,8.411-7.867,12.614
	c-1.923,3.079-3.859,6.149-5.779,9.23c-0.443,0.711-0.913,1.35-1.878,1.284c-0.011-2.883-0.021-5.767-0.033-8.649
	c0.006-29.459,0.013-58.918,0.016-88.378C381.797,247.399,381.749,246.823,381.725,246.248z"/>
<path fill-rule="evenodd" clip-rule="evenodd" fill="#078F91" d="M32.433,214.83c1.638,0.638,2.535,2.109,3.688,3.29
	c0.279,0.286,0.451,0.681,0.744,0.949c2.557,2.339,4.722,5.047,7.129,7.528c3.648,3.759,7.138,7.67,10.745,11.471
	c3.01,3.172,5.95,6.413,8.944,9.603c3.389,3.609,6.756,7.239,10.138,10.855c2.908,3.11,5.773,6.262,8.697,9.359
	c3.556,3.769,7.075,7.572,10.624,11.349c2.955,3.146,5.879,6.321,8.817,9.483c3.41,3.67,6.843,7.317,10.252,10.985
	c1.883,2.025,3.688,4.109,5.824,5.877c-0.98,2.95-2.212,5.801-3.594,8.577c-0.86,1.729-1.591,3.502-2.347,5.272
	c-0.534,1.25-1.133,2.474-1.681,3.722c-1.461,3.328-3.133,6.564-4.555,9.908c-1.906,4.483-3.942,8.902-6.087,13.274
	c-2.511,5.116-4.947,10.271-7.646,15.292c-0.134,0.249-0.316,0.472-0.476,0.706c-1.33-0.215-1.667-1.503-2.462-2.292
	c-3.228-3.205-6.223-6.629-9.323-9.953c-3.297-3.535-6.594-7.072-9.9-10.598c-3.15-3.358-6.28-6.733-9.414-10.106
	c-3.212-3.457-6.409-6.931-9.667-10.341c-2.666-2.79-5.135-5.768-7.974-8.392c-0.127-0.117-0.245-0.245-0.357-0.376
	c-2.746-3.182-5.634-6.231-8.571-9.236c-0.44-0.451-0.854-0.956-1.547-1.032C32.433,271.614,32.433,243.221,32.433,214.83z"/>
<path fill-rule="evenodd" clip-rule="evenodd" fill="#128289" d="M483.934,463.086c-0.807-0.021-1.613-0.06-2.42-0.06
	c-32.079-0.004-64.158-0.004-96.237-0.009c-0.807,0-1.613-0.04-2.42-0.062c0.237-0.749,1.268-0.887,1.352-1.753
	c0.187-0.143,0.351-0.3,0.373-0.554l-0.021,0.034c1.671-1.221,2.611-3.034,3.689-4.706c5.228-8.105,9.431-16.764,13.495-25.483
	c5.719-12.269,10.926-24.758,15.797-37.388c0.369-0.955,0.594-1.987,1.244-2.823c0.682,0.628,1.522,0.753,2.403,0.785
	c1.722,0.064,3.438,0.276,5.144,0.463c2.054,0.226,4.117,0.336,6.171,0.529c1.825,0.171,3.653,0.375,5.49,0.48
	c3.261,0.188,6.501,0.751,9.762,0.907c3.388,0.163,6.741,0.655,10.127,0.827c1.417,0.072,2.861,0.183,4.287,0.348
	c1.938,0.223,3.876,0.504,5.82,0.569c1.898,0.064,3.782,0.314,5.661,0.495c1.486,0.142,2.981,0.134,4.465,0.32
	c1.934,0.242,3.877,0.403,5.817,0.6C483.934,418.766,483.934,440.926,483.934,463.086z"/>
<path fill-rule="evenodd" clip-rule="evenodd" fill="#90C5CB" d="M37.894,58.377c-0.073-0.016-0.142-0.044-0.205-0.083
	c-0.055-0.197-0.119-0.383-0.386-0.334c0,0,0.005,0.005,0.005,0.004c0.119-0.351-0.011-0.576-0.353-0.691c0,0,0,0.009,0.001,0.009
	c0.031-0.308-0.014-0.576-0.349-0.701l0.002,0.01c0.043-0.331-0.062-0.591-0.358-0.762c-1.186-2.251-2.372-4.502-3.556-6.753
	c7.104-1.008,14.238-1.752,21.372-2.493c7.991-0.829,15.983-1.638,23.977-2.442c4.567-0.459,9.134-0.913,13.705-1.333
	c4.517-0.416,9.038-0.773,13.555-1.18c5.771-0.521,11.538-1.08,17.309-1.594c3.375-0.301,6.755-0.535,10.13-0.824
	c6.174-0.529,12.346-1.081,18.519-1.614c1.945-0.168,3.895-0.289,5.838-0.476c0.281-0.027,1.04,0.237,0.674-0.606
	c2.308,0,4.617,0,6.925,0c-0.363,0.614,0.127,1.064,0.323,1.555c6.995,17.531,14,35.058,21,52.586
	c2.177,5.451,4.35,10.903,6.519,16.357c0.104,0.263,0.155,0.546,0.231,0.82c-0.756,0.039-1.483-0.075-2.209-0.31
	c-6.962-2.255-13.933-4.486-20.896-6.741c-9.102-2.948-18.198-5.91-27.297-8.868c-9.427-3.065-18.853-6.133-28.281-9.196
	c-8.66-2.813-17.323-5.62-25.983-8.433c-9.482-3.081-18.965-6.162-28.445-9.251c-6.412-2.09-12.819-4.191-19.225-6.297
	C39.604,58.463,38.776,58.245,37.894,58.377z"/>
<path fill-rule="evenodd" clip-rule="evenodd" fill="#39B7BB" d="M483.934,49.672c-1.153,2.289-2.307,4.577-3.46,6.866
	c-0.189,0.074-0.307,0.211-0.356,0.408l0.008-0.012c-0.222,0.183-0.335,0.42-0.354,0.705l0.007-0.012
	c-0.268,0.23-0.36,0.532-0.356,0.873l0.007-0.012c-1.542,1.79-2.427,3.952-3.434,6.045c-0.066,0.24-0.352,0.464-0.054,0.731
	l0.031-0.044c-0.413-0.163-0.342,0.162-0.379,0.376l0.02-0.027c-0.338,0.135-0.388,0.414-0.365,0.729l0.019-0.036
	c-0.337,0.133-0.386,0.412-0.366,0.726l0.036-0.027c-0.927,0.605-1.147,1.684-1.627,2.561
	c-6.039,11.063-12.032,22.152-18.032,33.238c-5.451,10.074-10.897,20.151-16.344,30.228c-2.381,4.406-4.754,8.815-7.14,13.218
	c-0.217,0.4-0.503,0.763-0.756,1.144c-0.998-0.6-0.919-1.68-1.101-2.605c-2.184-11.128-4.343-22.26-6.5-33.393
	c-1.565-8.082-3.104-16.169-4.679-24.249c-1.994-10.227-4.039-20.444-6.004-30.677c-0.465-2.422-1.264-4.799-1.172-7.314
	c0.46-0.023,0.92-0.066,1.38-0.066c23.188-0.01,46.377-0.017,69.566-0.022c0.345,0,0.69,0.023,1.037,0.036
	c0.122,0.088,0.244,0.176,0.367,0.264C483.934,49.441,483.934,49.557,483.934,49.672z"/>
<path fill-rule="evenodd" clip-rule="evenodd" fill="#20B0B1" d="M483.934,250.146c0,33.354,0,66.71,0,100.064
	c-0.346-0.006-0.698,0.031-1.035-0.023c-3.23-0.524-6.505-0.656-9.756-0.926c-3.368-0.279-6.731-0.689-10.117-0.835
	c-1.594-0.068-3.198-0.266-4.797-0.412c-1.94-0.177-3.875-0.485-5.817-0.552c-1.898-0.064-3.778-0.325-5.657-0.497
	c-1.43-0.131-2.867-0.117-4.29-0.299c-2.676-0.341-5.351-0.686-8.058-0.606c0.644-2.089,1.27-4.183,1.934-6.265
	c5.262-16.495,10.069-33.12,14.495-49.859c2.795-10.568,5.451-21.167,7.91-31.816c0.775-3.361,1.6-6.71,2.401-10.065
	c1.041-0.016,2.02,0.425,3.076,0.368c1.9-0.103,3.781,0.279,5.661,0.457c1.43,0.135,2.865,0.142,4.293,0.294
	C477.427,249.52,480.681,249.825,483.934,250.146z"/>
<path fill-rule="evenodd" clip-rule="evenodd" fill="#099A9E" d="M32.433,300.006c0.694,0.076,1.107,0.581,1.547,1.032
	c2.937,3.005,5.825,6.055,8.571,9.236c0.113,0.131,0.23,0.259,0.357,0.376c2.839,2.624,5.308,5.602,7.974,8.392
	c3.259,3.41,6.456,6.884,9.667,10.341c3.134,3.373,6.264,6.748,9.414,10.106c3.307,3.525,6.603,7.063,9.9,10.598
	c3.101,3.324,6.096,6.748,9.323,9.953c0.794,0.789,1.132,2.077,2.462,2.292c-1.162,2.957-2.787,5.685-4.252,8.487
	c-4.615,8.831-9.351,17.598-14.223,26.291c-0.953,1.701-1.811,3.46-2.947,5.056c-1.13-0.201-1.782-1.092-2.383-1.888
	c-1.881-2.492-4.257-4.516-6.311-6.847c-2.884-3.274-5.896-6.447-8.899-9.619c-3.716-3.926-7.394-7.887-11.081-11.84
	c-2.666-2.857-5.32-5.727-7.969-8.601c-0.326-0.354-0.671-0.625-1.153-0.696C32.433,341.785,32.433,320.895,32.433,300.006z"/>
<path fill-rule="evenodd" clip-rule="evenodd" fill="#099A9E" d="M434.406,346.06c2.707-0.079,5.382,0.266,8.058,0.606
	c1.423,0.182,2.86,0.168,4.29,0.299c1.879,0.172,3.759,0.433,5.657,0.497c1.942,0.066,3.877,0.375,5.817,0.552
	c1.599,0.146,3.203,0.344,4.797,0.412c3.386,0.146,6.749,0.556,10.117,0.835c3.251,0.27,6.525,0.401,9.756,0.926
	c0.337,0.055,0.689,0.018,1.035,0.023c0,15.465,0,30.931,0,46.396c-1.94-0.196-3.884-0.357-5.817-0.6
	c-1.483-0.187-2.979-0.179-4.465-0.32c-1.879-0.181-3.763-0.431-5.661-0.495c-1.944-0.065-3.883-0.347-5.82-0.569
	c-1.426-0.165-2.87-0.275-4.287-0.348c-3.386-0.172-6.739-0.664-10.127-0.827c-3.261-0.156-6.501-0.72-9.762-0.907
	c-1.837-0.105-3.665-0.31-5.49-0.48c-2.054-0.193-4.117-0.304-6.171-0.529c-1.706-0.187-3.422-0.398-5.144-0.463
	c-0.881-0.032-1.722-0.157-2.403-0.785c0.885-3.207,2.264-6.233,3.41-9.346c3.646-9.891,7.13-19.839,10.463-29.841
	C433.221,349.411,433.822,347.739,434.406,346.06z"/>
<path fill-rule="evenodd" clip-rule="evenodd" fill="#0D7076" d="M90.964,463.632c-3.167,0.502-6.363,0.674-9.557,0.895
	c-4.223,0.292-8.443,0.637-12.679,0.7c-0.42,0.006-0.983-0.091-0.979,0.629c-11.542,0-23.083,0-34.625,0
	c0.625-1.63,1.365-3.194,2.575-4.488c0.999-0.543,1.426-1.582,2.076-2.423c0.225-0.291,0.482-0.661,0.172-1.077l-0.039,0.025
	c0.825,0.281,0.941-0.491,1.23-0.895c2.343-3.278,4.679-6.563,6.969-9.879c7.59-10.993,14.835-22.212,21.871-33.568
	c1.421-2.293,2.676-4.69,4.29-6.863c0.428,0.556,0.704,1.183,0.908,1.851c0.486,1.598,0.964,3.198,1.48,4.786
	c3.222,9.919,6.45,19.835,9.683,29.75c2.09,6.409,4.193,12.814,6.283,19.224C90.767,462.733,90.853,463.186,90.964,463.632z"/>
<path fill-rule="evenodd" clip-rule="evenodd" fill="#06AAAB" d="M32.433,362.676c0.481,0.071,0.827,0.343,1.153,0.696
	c2.648,2.874,5.303,5.743,7.969,8.601c3.687,3.953,7.365,7.914,11.081,11.84c3.002,3.172,6.015,6.345,8.899,9.619
	c2.054,2.331,4.43,4.354,6.311,6.847c0.601,0.796,1.252,1.687,2.383,1.888c-1.898,3.752-4.066,7.354-6.156,10.999
	c-3.753,6.545-7.549,13.065-11.334,19.592c-0.201,0.347-0.465,0.655-0.7,0.982c-0.662-0.271-1.136-0.785-1.594-1.295
	c-2.569-2.857-5.232-5.63-7.841-8.45c-3.116-3.37-6.302-6.677-9.414-10.052c-0.177-0.192-0.501-0.249-0.756-0.369
	C32.433,396.607,32.433,379.641,32.433,362.676z"/>
<path fill-rule="evenodd" clip-rule="evenodd" fill="#39B7BB" d="M483.934,250.146c-3.253-0.321-6.507-0.626-9.757-0.973
	c-1.428-0.152-2.863-0.159-4.293-0.294c-1.88-0.178-3.761-0.56-5.661-0.457c-1.057,0.057-2.035-0.384-3.076-0.368
	c0.014-0.229-0.002-0.465,0.046-0.688c1.238-5.793,2.524-11.577,3.719-17.379c2.11-10.25,4.033-20.538,5.789-30.854
	c1.1-6.458,2.146-12.927,3.124-19.405c0.927-6.135,1.723-12.291,2.593-18.435c0.902-6.37,1.629-12.761,2.352-19.153
	c0.38-3.367,0.749-6.735,1.123-10.103c1.356,0.035,2.667,0.546,4.042,0.385C483.934,171.665,483.934,210.906,483.934,250.146z"/>
<path fill-rule="evenodd" clip-rule="evenodd" fill="#20B0B1" d="M32.433,413.573c0.255,0.12,0.579,0.177,0.756,0.369
	c3.112,3.375,6.298,6.682,9.414,10.052c2.609,2.82,5.271,5.593,7.841,8.45c0.458,0.51,0.933,1.023,1.594,1.295
	c-1.916,3.264-3.7,6.597-5.885,9.71c-1.164,1.658-1.941,3.603-2.998,5.36c-1.541,2.562-3.083,5.122-4.612,7.691
	c-0.26,0.437-0.641,0.829-0.633,1.392l0.039-0.025c-1.031,0.985-1.562,2.293-2.249,3.5c-1.21,1.294-1.95,2.858-2.575,4.488
	c-0.217-0.143-0.734,0.337-0.696-0.347c0.022-0.402,0.004-0.808,0.004-1.211C32.433,447.389,32.433,430.481,32.433,413.573z"/>
<path fill-rule="evenodd" clip-rule="evenodd" fill="#7BB5BA" d="M483.934,132.424c-1.375,0.161-2.686-0.351-4.042-0.385
	c0.306-3.426,0.624-6.851,0.914-10.278c0.362-4.292,0.722-8.583,1.043-12.877c0.172-2.292,0.3-4.589,0.44-6.883
	c0.246-4.012,0.668-8.013,0.576-12.041c0.239-0.389,0.424-0.787,0.405-1.267c-0.081-2.088,0.212-4.177-0.007-6.266
	c0,0-0.017-0.019-0.017-0.02c0.652-1.173,0.253-2.424,0.27-3.644c0.059-2.527,0.116-5.054,0.174-7.581
	c0.083-0.001,0.164-0.016,0.243-0.044C483.934,91.568,483.934,111.996,483.934,132.424z"/>
<path fill-rule="evenodd" clip-rule="evenodd" fill="#39B7BB" d="M483.934,71.139c-0.079,0.028-0.16,0.043-0.243,0.044
	c-0.066-1.638-0.483-3.293,0.243-4.892C483.934,67.907,483.934,69.523,483.934,71.139z"/>
<path fill-rule="evenodd" clip-rule="evenodd" fill="#40888B" d="M483.934,49.326c-0.123-0.088-0.245-0.176-0.367-0.264
	c0.122-0.027,0.244-0.055,0.367-0.082C483.934,49.095,483.934,49.211,483.934,49.326z"/>
<path fill-rule="evenodd" clip-rule="evenodd" fill="#7BB5BA" d="M211.861,156.29c0.809,0.17,0.745,0.945,0.96,1.479
	c3.078,7.626,6.13,15.262,9.183,22.898c6.918,17.304,13.834,34.609,20.746,51.916c0.212,0.531,0.37,1.083,0.553,1.626
	c-0.5,0.427-1.062,0.373-1.637,0.212c-0.777-0.217-1.562-0.411-2.33-0.657c-4.502-1.447-8.974-2.981-13.485-4.405
	c-9.293-2.934-18.544-6.001-27.813-9.012c-8.83-2.869-17.661-5.733-26.49-8.604c-9.816-3.192-19.634-6.381-29.446-9.586
	c-7.84-2.561-15.657-5.192-23.518-7.683c-1.901-0.603-3.758-1.521-5.84-1.45c-1.86-2.843-3.373-5.884-5.028-8.843
	c-6.691-11.958-13.353-23.933-20.018-35.907c-6.72-12.073-13.434-24.149-20.138-36.23c-0.445-0.801-1.005-1.548-1.258-2.45
	c1.67-0.141,3.178,0.541,4.697,1.027c9.446,3.024,18.872,6.115,28.305,9.179c8.666,2.815,17.333,5.623,25.999,8.438
	c9.433,3.064,18.865,6.134,28.298,9.199c9.049,2.94,18.101,5.873,27.147,8.822c6.963,2.271,13.915,4.578,20.882,6.837
	C205.027,154.199,208.449,155.228,211.861,156.29z"/>
<path fill-rule="evenodd" clip-rule="evenodd" fill="#06AAAB" d="M335.738,80.141c1.276-3.737,2.948-7.313,4.451-10.959
	c2.471-5.995,4.933-11.993,7.398-17.989c0.021-0.053,0.054-0.102,0.076-0.155c0.846-1.999,0.846-2,2.986-2.001
	c6-0.002,12-0.005,17.999,0c0.575,0,1.149,0.05,1.724,0.077c0.038,2.556,0.778,5.002,1.236,7.486
	c1.514,8.214,3.145,16.406,4.735,24.605c1.515,7.804,3.037,15.605,4.554,23.408c1.604,8.255,3.197,16.513,4.807,24.767
	c1.653,8.48,3.32,16.958,4.98,25.438c1.428,7.293,2.857,14.585,4.281,21.879c1.611,8.254,3.221,16.508,4.818,24.765
	c0.137,0.703,0.244,1.382,1.073,1.6c-1.159,2.768-2.75,5.31-4.165,7.943c-4.742,8.829-9.532,17.632-14.305,26.444
	c-3.484,6.433-6.968,12.865-10.459,19.294c-0.134,0.247-0.341,0.455-0.514,0.682c-0.428-0.256-0.638-0.644-0.72-1.125
	c-0.146-0.851-0.3-1.7-0.464-2.547c-1.601-8.256-3.197-16.513-4.807-24.767c-1.653-8.48-3.329-16.957-4.978-25.438
	c-1.461-7.521-2.889-15.047-4.35-22.567c-1.646-8.481-3.317-16.958-4.967-25.439c-1.583-8.142-3.146-16.288-4.729-24.43
	c-1.649-8.481-3.318-16.958-4.97-25.439c-1.563-8.028-3.117-16.058-4.667-24.089C336.641,80.928,336.484,80.334,335.738,80.141z"/>
<path fill-rule="evenodd" clip-rule="evenodd" fill="#86BDC3" d="M211.861,156.29c-3.412-1.062-6.834-2.09-10.232-3.192
	c-6.967-2.259-13.918-4.566-20.882-6.837c-9.046-2.95-18.098-5.882-27.147-8.822c-9.433-3.065-18.865-6.135-28.298-9.199
	c-8.666-2.814-17.333-5.623-25.999-8.438c-9.433-3.064-18.858-6.155-28.305-9.179c-1.519-0.486-3.027-1.168-4.697-1.027
	c-2.401-4.252-4.825-8.492-7.2-12.758c-5.823-10.455-11.623-20.922-17.435-31.383c-0.136-0.245-0.239-0.53-0.566-0.601
	c0,0,0.029,0.046,0.029,0.045c0.016-0.308-0.027-0.587-0.365-0.715l0.014,0.02c-0.027-0.215,0.045-0.521-0.358-0.389l0.034,0.046
	c0.28-0.318-0.057-0.533-0.133-0.792c-0.654-1.419-1.342-2.819-2.327-4.049l-0.012-0.018c-0.028-0.116-0.056-0.232-0.084-0.349
	c-0.009-0.092-0.011-0.185-0.005-0.277c0.883-0.131,1.71,0.087,2.541,0.36c6.406,2.106,12.813,4.208,19.225,6.297
	c9.48,3.09,18.962,6.171,28.445,9.251c8.66,2.813,17.323,5.62,25.983,8.433c9.428,3.063,18.854,6.131,28.281,9.196
	c9.099,2.958,18.195,5.92,27.297,8.868c6.962,2.255,13.933,4.486,20.896,6.741c0.727,0.235,1.453,0.349,2.209,0.31
	c1.468,2.933,2.52,6.04,3.75,9.071c2.662,6.56,5.365,13.105,7.831,19.739c1.788,4.81,3.68,9.576,5.552,14.351
	c0.586,1.494,1.036,3.061,1.883,4.455C211.917,155.665,211.841,156.007,211.861,156.29z"/>
<path fill-rule="evenodd" clip-rule="evenodd" fill="#62A2A6" d="M112.743,193.025c2.082-0.072,3.939,0.847,5.84,1.45
	c7.861,2.491,15.678,5.122,23.518,7.683c9.812,3.205,19.629,6.394,29.446,9.586c8.829,2.871,17.66,5.735,26.49,8.604
	c9.269,3.011,18.52,6.078,27.813,9.012c4.511,1.424,8.983,2.958,13.485,4.405c0.768,0.247,1.553,0.44,2.33,0.657
	c0.575,0.161,1.138,0.214,1.637-0.212c1.446,2.874,2.481,5.918,3.681,8.893c4.084,10.126,8.153,20.259,12.136,30.425
	c1.351,3.448,2.511,6.973,4.001,10.369c0.429,0.978,1.055,1.87,1.24,2.95c-0.758,0.04-1.482-0.103-2.205-0.34
	c-4.434-1.459-8.858-2.942-13.31-4.351c-9.064-2.869-18.093-5.855-27.136-8.793c-9.372-3.046-18.743-6.093-28.115-9.138
	c-8.77-2.849-17.542-5.687-26.308-8.543c-7.124-2.322-14.237-4.673-21.363-6.988c-0.929-0.302-1.782-0.826-2.774-0.937
	c-3.105-5.043-5.771-10.333-8.7-15.476c-3.786-6.648-7.576-13.296-11.223-20.021c-3.348-6.173-6.835-12.268-10.194-18.435
	C112.898,193.579,112.838,193.293,112.743,193.025z"/>
<path fill-rule="evenodd" clip-rule="evenodd" fill="#20B0B1" d="M400.858,203.062c-0.829-0.218-0.937-0.897-1.073-1.6
	c-1.598-8.256-3.207-16.511-4.818-24.765c-1.424-7.294-2.854-14.586-4.281-21.879c-1.66-8.479-3.327-16.957-4.98-25.438
	c-1.609-8.254-3.203-16.512-4.807-24.767c-1.517-7.803-3.039-15.604-4.554-23.408c-1.591-8.199-3.222-16.391-4.735-24.605
	c-0.458-2.484-1.198-4.93-1.236-7.486c0.459-0.024,0.917-0.069,1.375-0.069c12.821-0.007,25.642-0.011,38.462-0.01
	c0.458,0,0.915,0.052,1.373,0.079c-0.092,2.515,0.707,4.892,1.172,7.314c1.965,10.232,4.01,20.45,6.004,30.677
	c1.575,8.08,3.113,16.167,4.679,24.249c2.157,11.133,4.316,22.265,6.5,33.393c0.182,0.926,0.103,2.006,1.101,2.605
	c-1.039,2.504-2.479,4.801-3.755,7.181c-4.405,8.222-8.877,16.41-13.32,24.612c-4.196,7.746-8.389,15.495-12.589,23.239
	C401.239,202.63,401.032,202.837,400.858,203.062z"/>
<path fill-rule="evenodd" clip-rule="evenodd" fill="#078F91" d="M305.616,152.505c0.89-2.904,2.217-5.635,3.365-8.435
	c2.201-5.368,4.489-10.701,6.723-16.056c3.529-8.463,7.043-16.933,10.569-25.397c0.108-0.26,0.274-0.496,0.413-0.743
	c0.383,0.714,0.645,1.453,0.798,2.266c1.258,6.676,2.555,13.345,3.848,20.015c1.513,7.8,3.037,15.599,4.552,23.399
	c1.604,8.252,3.199,16.506,4.804,24.758c1.627,8.365,3.263,16.728,4.889,25.093c1.604,8.252,3.2,16.506,4.805,24.758
	c1.626,8.365,3.257,16.729,4.891,25.093c1.225,6.273,2.463,12.544,3.687,18.818c0.496,2.543,0.938,5.097,1.469,7.632
	c0.151,0.726,0.111,1.724,1.3,1.723c-1.39,3.028-3.076,5.901-4.695,8.806c-0.939,1.686-1.954,3.326-2.854,5.043
	c-3.192,6.093-6.447,12.153-9.729,18.197c-1.726,3.178-3.312,6.434-5.241,9.499c-1.334-0.276-1.146-1.489-1.327-2.359
	c-0.826-3.942-1.552-7.905-2.316-11.86c-1.585-8.193-3.164-16.388-4.759-24.579c-1.649-8.474-3.322-16.942-4.97-25.417
	c-1.583-8.135-3.141-16.275-4.719-24.411c-1.523-7.853-3.059-15.704-4.59-23.556c-1.784-9.151-3.574-18.302-5.355-27.454
	c-1.506-7.739-3.007-15.479-4.498-23.221C306.538,153.418,306.445,152.73,305.616,152.505z"/>
<path fill-rule="evenodd" clip-rule="evenodd" fill="#0D7076" d="M298.008,370.304c0.11-1.502-0.658-2.78-1.122-4.116
	c-3.536-10.175-7.108-20.337-10.712-30.487c-5.146-14.493-10.331-28.974-15.685-43.392c-3.389-9.127-6.787-18.25-10.5-27.252
	c-0.471-1.141-0.453-2.139,0.032-3.3c4.861-11.64,9.656-23.307,14.493-34.957c2.693-6.489,5.444-12.955,8.145-19.442
	c1.787-4.292,3.53-8.603,5.298-12.903c0.108-0.262,0.265-0.504,0.399-0.755c0.778,0.15,0.9,0.738,1.026,1.403
	c1.167,6.164,2.354,12.324,3.548,18.483c1.609,8.307,3.229,16.612,4.844,24.918c1.614,8.306,3.229,16.612,4.844,24.917
	c1.615,8.307,3.229,16.613,4.845,24.918c1.628,8.362,3.258,16.725,4.889,25.086c1.796,9.209,3.593,18.418,5.391,27.627
	c0.563,2.881,1.127,5.761,1.694,8.641c0.148,0.755,0.307,1.511,1.313,1.538c-4.635,8.562-9.27,17.123-13.901,25.686
	c-0.96,1.774-1.896,3.561-2.87,5.326c-0.293,0.531-0.411,1.226-1.131,1.429c-0.214-1.254-0.683-2.423-1.173-3.588
	c-1.155-2.749-2.447-5.444-3.325-8.305c0.431-0.281,0.36-0.55-0.021-0.811l0.021,0.04c-0.006-0.303,0.073-0.648-0.371-0.727
	L298.008,370.304z"/>
<path fill-rule="evenodd" clip-rule="evenodd" fill="#128289" d="M90.964,463.632c-0.112-0.445-0.197-0.898-0.339-1.334
	c-2.09-6.409-4.193-12.814-6.283-19.224c-3.233-9.915-6.461-19.831-9.683-29.75c-0.516-1.588-0.995-3.188-1.48-4.786
	c-0.204-0.668-0.479-1.295-0.908-1.851c3.015-5.18,6.05-10.347,9.038-15.541c4.598-7.992,9.01-16.087,13.302-24.249
	c3.891-7.399,7.602-14.887,11.274-22.396c0.655-1.34,1.083-2.796,2.021-3.992c0.884,0.428,1.084,1.296,1.35,2.117
	c2.43,7.516,4.852,15.035,7.288,22.549c3.06,9.435,6.132,18.864,9.197,28.297c2.94,9.048,5.873,18.1,8.822,27.145
	c2.251,6.908,4.526,13.81,6.785,20.716c0.646,1.973,1.282,3.948,1.898,5.93c0.178,0.571,0.347,1.108,1.012,1.275
	c-1.409,2.239-3.621,3.507-5.854,4.695c-5.177,2.758-10.779,4.326-16.443,5.701c-6.883,1.67-13.869,2.759-20.882,3.669
	C97.719,463.039,94.357,463.505,90.964,463.632z"/>
<path fill-rule="evenodd" clip-rule="evenodd" fill="#128289" d="M381.781,336.352c0.012,2.883,0.022,5.767,0.033,8.649
	c-0.007,6.461-0.013,12.922-0.019,19.383c0,0.115-0.007,0.231,0.003,0.346c0.037,0.445-0.106,1.013,0.432,1.211
	c0.557,0.205,0.804-0.302,1.057-0.681c0.674-1.006,1.362-2.003,2.003-3.03c3.596-5.771,7.171-11.554,10.769-17.323
	c3.08-4.938,6.188-9.859,9.271-14.795c3.847-6.157,7.679-12.324,11.525-18.481c3.084-4.936,6.187-9.859,9.271-14.795
	c3.816-6.108,7.62-12.225,11.435-18.335c2.563-4.105,5.13-8.209,7.705-12.308c3.097-4.929,6.199-9.852,9.313-14.77
	c0.331-0.524,0.616-1.134,1.329-1.279c-1,4.176-1.963,8.36-3.007,12.524c-3.769,15.026-7.92,29.948-12.248,44.821
	c-3.846,13.217-7.895,26.371-12.123,39.47c-3.239,10.034-6.58,20.035-10.072,29.983c-1.334,3.801-2.575,7.636-4.104,11.366
	c-0.587,0.042-0.877,0.46-1.199,0.885c-1.326,1.75-2.386,3.669-3.554,5.519c-3.171,5.018-6.318,10.051-9.464,15.085
	c-3.848,6.157-7.714,12.304-11.515,18.49c-2.079,3.385-4.443,6.603-6.101,10.239c-0.155,0.341-0.373,0.572-0.729,0.675
	c0-19.269,0-38.536,0-57.917c-1.72,0.77-1.733,0.754-2.719-0.514c-0.917-1.179-1.883-2.319-2.784-3.511
	c-0.341-0.452-0.714-0.732-1.281-0.737c-0.027-0.46-0.079-0.919-0.079-1.379c0-13.96,0.004-27.92,0.012-41.88
	c0-0.461,0.042-0.921,0.064-1.382c0.936-0.039,1.432,0.641,1.94,1.244c0.66,0.783,1.259,1.62,1.884,2.434
	C379.942,337.009,380.075,337.044,381.781,336.352z"/>
<path fill-rule="evenodd" clip-rule="evenodd" fill="#40888B" d="M298.349,371.78c0.878,2.86,2.17,5.556,3.325,8.305
	c0.49,1.165,0.959,2.334,1.173,3.588c-0.575,0.02-1.151,0.058-1.727,0.058c-26.813-0.003-53.625-0.024-80.438,0.024
	c-1.48,0.002-2.248-0.453-2.945-1.721c-5.475-9.938-11.021-19.838-16.541-29.752c-5.603-10.063-11.201-20.13-16.796-30.197
	c-0.362-0.652-0.678-1.329-1.016-1.994c2.15-0.165,4.065,0.781,6.016,1.401c10.047,3.192,20.059,6.497,30.085,9.755
	c8.054,2.617,16.112,5.219,24.166,7.835c9.808,3.186,19.613,6.378,29.419,9.571c5.478,1.783,10.954,3.571,16.43,5.363
	c0.605,0.198,1.209,0.381,1.856,0.344c1.78,4.398,3.543,8.804,5.356,13.188c0.386,0.935,0.559,1.981,1.294,2.756l-0.029-0.021
	c-0.003,0.308-0.009,0.615,0.371,0.727l-0.021-0.04C298.335,371.24,298.342,371.51,298.349,371.78z"/>
<path fill-rule="evenodd" clip-rule="evenodd" fill="#579A9E" d="M143.149,247.757c0.992,0.11,1.845,0.635,2.774,0.937
	c7.125,2.315,14.239,4.666,21.363,6.988c8.766,2.857,17.539,5.695,26.308,8.543c9.372,3.045,18.743,6.092,28.115,9.138
	c9.043,2.938,18.071,5.924,27.136,8.793c4.452,1.408,8.876,2.892,13.31,4.351c0.723,0.237,1.447,0.38,2.205,0.34
	c1.467,2.997,2.553,6.153,3.805,9.238c2.574,6.34,5.121,12.692,7.599,19.07c0.628,1.614,1.114,3.286,1.857,4.858
	c-0.743,0.546-1.453,0.062-2.135-0.125c-1.667-0.457-3.315-0.985-4.96-1.519c-9.381-3.042-18.758-6.094-28.136-9.142
	c-9.104-2.959-18.208-5.916-27.312-8.876c-9.597-3.12-19.196-6.236-28.791-9.366c-6.963-2.271-13.92-4.563-20.879-6.848
	c-0.715-0.234-1.428-0.467-2.198-0.362c-1.761-2.632-3.151-5.477-4.7-8.229c-4.852-8.626-9.649-17.284-14.459-25.935
	C143.719,249.011,143.448,248.376,143.149,247.757z"/>
<path fill-rule="evenodd" clip-rule="evenodd" fill="#4C9194" d="M163.211,283.775c0.77-0.104,1.482,0.128,2.198,0.362
	c6.959,2.285,13.916,4.576,20.879,6.848c9.594,3.13,19.193,6.246,28.791,9.366c9.104,2.96,18.208,5.917,27.312,8.876
	c9.378,3.048,18.755,6.1,28.136,9.142c1.645,0.533,3.293,1.062,4.96,1.519c0.682,0.187,1.392,0.671,2.135,0.125
	c1.55,3.152,2.671,6.481,4.005,9.722c1.775,4.312,3.539,8.631,5.175,12.996c1.308,3.492,2.568,7,3.975,10.454
	c0.169,0.416,0.69,0.644,0.582,1.176c-0.647,0.037-1.251-0.146-1.856-0.344c-5.476-1.792-10.952-3.58-16.43-5.363
	c-9.806-3.193-19.611-6.386-29.419-9.571c-8.054-2.616-16.112-5.218-24.166-7.835c-10.027-3.258-20.039-6.563-30.085-9.755
	c-1.951-0.62-3.866-1.566-6.016-1.401c-1.611-2.384-2.851-4.979-4.254-7.481c-5.122-9.126-10.197-18.279-15.282-27.426
	C163.599,284.734,163.422,284.245,163.211,283.775z"/>
<path fill-rule="evenodd" clip-rule="evenodd" fill="#088488" d="M305.616,152.505c0.829,0.225,0.922,0.913,1.057,1.611
	c1.491,7.742,2.992,15.482,4.498,23.221c1.781,9.152,3.571,18.302,5.355,27.454c1.531,7.852,3.066,15.703,4.59,23.556
	c1.578,8.136,3.136,16.275,4.719,24.411c1.647,8.474,3.32,16.943,4.97,25.417c1.595,8.191,3.174,16.386,4.759,24.579
	c0.765,3.955,1.49,7.918,2.316,11.86c0.182,0.87-0.007,2.083,1.327,2.359c-0.935,2.218-2.203,4.262-3.338,6.374
	c-2.467,4.591-4.961,9.165-7.45,13.743c-0.189,0.349-0.43,0.669-0.646,1.002c-0.852,0.023-1.036-0.583-1.159-1.236
	c-0.332-1.754-0.646-3.512-0.987-5.263c-1.653-8.481-3.319-16.959-4.969-25.44c-1.584-8.143-3.146-16.289-4.729-24.432
	c-1.649-8.481-3.32-16.958-4.97-25.44c-1.584-8.143-3.146-16.289-4.728-24.431c-1.538-7.916-3.09-15.83-4.636-23.744
	c-1.082-5.541-2.162-11.082-3.247-16.623c-0.786-4.013-1.575-8.025-2.369-12.037c-0.134-0.677-0.22-1.397-1.029-1.662
	c3.372-8.076,6.741-16.152,10.123-24.223C305.226,153.2,305.277,152.775,305.616,152.505z"/>
<path fill-rule="evenodd" clip-rule="evenodd" fill="#099A9E" d="M361.727,275.427c-1.188,0.001-1.148-0.997-1.3-1.723
	c-0.531-2.535-0.973-5.089-1.469-7.632c-1.224-6.273-2.462-12.544-3.687-18.818c-1.634-8.363-3.265-16.728-4.891-25.093
	c-1.604-8.252-3.2-16.506-4.805-24.758c-1.626-8.365-3.262-16.728-4.889-25.093c-1.604-8.252-3.2-16.506-4.804-24.758
	c-1.515-7.8-3.039-15.599-4.552-23.399c-1.293-6.67-2.59-13.339-3.848-20.015c-0.153-0.813-0.415-1.551-0.798-2.266
	c0.961-2.999,2.313-5.838,3.53-8.733c1.693-4.029,3.361-8.069,5.049-12.101c0.13-0.311,0.16-0.681,0.473-0.898
	c0.746,0.193,0.902,0.787,1.028,1.44c1.55,8.031,3.104,16.061,4.667,24.089c1.651,8.481,3.32,16.958,4.97,25.439
	c1.583,8.142,3.146,16.288,4.729,24.43c1.649,8.481,3.32,16.958,4.967,25.439c1.461,7.521,2.889,15.047,4.35,22.567
	c1.648,8.481,3.324,16.957,4.978,25.438c1.609,8.254,3.206,16.511,4.807,24.767c0.164,0.847,0.317,1.697,0.464,2.547
	c0.082,0.481,0.292,0.869,0.72,1.125c-0.594,1.814-1.7,3.37-2.583,5.035c-2.23,4.206-4.527,8.377-6.801,12.559
	C361.951,275.167,361.829,275.292,361.727,275.427z"/>
<path fill-rule="evenodd" clip-rule="evenodd" fill="#078F91" d="M144.256,448.538c-0.665-0.167-0.834-0.704-1.012-1.275
	c-0.616-1.981-1.252-3.957-1.898-5.93c-2.259-6.906-4.533-13.808-6.785-20.716c-2.949-9.045-5.881-18.097-8.822-27.145
	c-3.065-9.433-6.138-18.862-9.197-28.297c-2.437-7.514-4.858-15.033-7.288-22.549c-0.266-0.821-0.465-1.689-1.35-2.117
	c0.397-1.51,1.138-2.889,1.801-4.276c3.729-7.798,7.083-15.756,10.395-23.735c0.261-0.63,0.396-1.333,0.921-1.833
	c0.466,0.803,0.768,1.674,1.053,2.552c2.772,8.553,5.541,17.105,8.321,25.654c3.296,10.14,6.604,20.275,9.903,30.414
	c1.248,3.836,2.63,7.628,3.728,11.514c0.216,0.768,0.391,1.631,1.49,1.604c0.029,0.573,0.083,1.146,0.083,1.72
	c0,20.034-0.006,40.068-0.005,60.103C145.595,445.809,145.404,447.317,144.256,448.538z"/>
<path fill-rule="evenodd" clip-rule="evenodd" fill="#099A9E" d="M145.517,382.403c-1.099,0.026-1.274-0.837-1.49-1.604
	c-1.098-3.886-2.479-7.678-3.728-11.514c-3.299-10.139-6.607-20.274-9.903-30.414c-2.78-8.549-5.549-17.102-8.321-25.654
	c-0.285-0.878-0.587-1.749-1.053-2.552c1.092-2.955,2.108-5.94,3.291-8.858c2.423-5.982,4.542-12.073,6.636-18.175
	c3.481-10.137,6.58-20.388,9.224-30.775c0.096-0.378,0.246-0.742,0.379-1.137c0.666,0.294,0.788,0.913,1.066,1.388
	c1.078,1.839,2.059,3.737,3.178,5.549c0.604,0.98,0.828,1.965,0.827,3.1c-0.023,20.368-0.021,40.736-0.024,61.104
	c-0.003,19.156-0.006,38.313-0.014,57.469C145.584,381.021,145.54,381.712,145.517,382.403z"/>
<path fill-rule="evenodd" clip-rule="evenodd" fill="#128289" d="M294.951,177.784c0.81,0.265,0.896,0.984,1.029,1.662
	c0.794,4.012,1.583,8.024,2.369,12.037c1.085,5.541,2.165,11.082,3.247,16.623c1.546,7.915,3.098,15.828,4.636,23.744
	c1.582,8.142,3.144,16.289,4.728,24.431c1.649,8.482,3.32,16.958,4.97,25.44c1.583,8.143,3.145,16.289,4.729,24.432
	c1.649,8.481,3.315,16.959,4.969,25.44c0.341,1.751,0.655,3.509,0.987,5.263c0.123,0.653,0.308,1.26,1.159,1.236
	c-0.873,1.988-1.988,3.85-3.023,5.752c-1.339,2.46-2.668,4.926-4.001,7.389c-1.006-0.027-1.164-0.783-1.313-1.538
	c-0.567-2.88-1.132-5.76-1.694-8.641c-1.798-9.209-3.595-18.418-5.391-27.627c-1.631-8.361-3.261-16.724-4.889-25.086
	c-1.616-8.305-3.229-16.611-4.845-24.918c-1.615-8.306-3.229-16.612-4.844-24.917c-1.615-8.306-3.234-16.611-4.844-24.918
	c-1.193-6.159-2.381-12.319-3.548-18.483c-0.126-0.665-0.248-1.252-1.026-1.403C290.555,188.395,292.753,183.089,294.951,177.784z"
	/>
<path fill-rule="evenodd" clip-rule="evenodd" fill="#0D7076" d="M381.781,336.352c-1.706,0.691-1.839,0.656-2.951-0.792
	c-0.625-0.813-1.224-1.65-1.884-2.434c-0.509-0.604-1.005-1.283-1.94-1.244c-0.033-0.689-0.096-1.379-0.096-2.068
	c0.007-23.527,0.025-47.056,0.014-70.583c0-1.256,0.249-2.343,0.929-3.416c2-3.162,3.921-6.375,5.872-9.567
	c0.024,0.575,0.072,1.151,0.072,1.726C381.794,277.434,381.787,306.893,381.781,336.352z"/>
<path fill-rule="evenodd" clip-rule="evenodd" fill="#0D7076" d="M381.793,439.202c0.355-0.103,0.573-0.334,0.729-0.675
	c1.657-3.637,4.021-6.854,6.101-10.239c3.801-6.187,7.667-12.333,11.515-18.49c3.146-5.034,6.293-10.067,9.464-15.085
	c1.168-1.85,2.228-3.769,3.554-5.519c0.322-0.425,0.612-0.843,1.199-0.885c-0.962,3.502-2.368,6.849-3.619,10.247
	c-5.172,14.05-10.591,28.002-16.562,41.733c-2.641,6.071-5.328,12.124-8.52,17.938c-0.427,0.777-1.224,1.421-1.093,2.456
	l0.021-0.034c-0.304,0.063-0.358,0.295-0.373,0.554c-0.084,0.866-1.114,1.004-1.352,1.753c-1.14,0.285-1.061-0.688-1.338-1.296
	c0.395-0.629,0.267-1.334,0.268-2.012C381.795,452.833,381.792,446.017,381.793,439.202z"/>
<path fill-rule="evenodd" clip-rule="evenodd" fill="#088488" d="M381.793,439.202c-0.001,6.815,0.002,13.631-0.007,20.446
	c-0.001,0.678,0.127,1.383-0.268,2.012c-2.083-4.811-4.149-9.628-6.264-14.426c-0.37-0.84-0.338-1.681-0.338-2.538
	c0-20.592,0.003-41.185,0.013-61.776c0.001-2.132,0.052-4.265,0.079-6.396c0.567,0.005,0.94,0.285,1.281,0.737
	c0.901,1.191,1.867,2.332,2.784,3.511c0.985,1.268,0.999,1.283,2.719,0.514C381.793,400.666,381.793,419.933,381.793,439.202z"/>
<path fill-rule="evenodd" clip-rule="evenodd" fill="#0D7076" d="M37.995,59.019c0.984,1.229,1.672,2.629,2.327,4.05
	c-0.155,0.035-0.311,0.069-0.466,0.103C38.982,61.902,38.086,60.641,37.995,59.019z"/>
<path fill-rule="evenodd" clip-rule="evenodd" fill="#0D7076" d="M36.954,57.273c0.342,0.116,0.472,0.341,0.353,0.691
	C37.049,57.806,36.955,57.564,36.954,57.273z"/>
<path fill-rule="evenodd" clip-rule="evenodd" d="M39.856,63.172c0.155-0.034,0.311-0.067,0.466-0.103
	c0.075,0.258,0.413,0.473,0.132,0.791C40.057,63.803,40.016,63.436,39.856,63.172z"/>
<path fill-rule="evenodd" clip-rule="evenodd" d="M40.765,64.183c0.338,0.128,0.38,0.407,0.365,0.715
	C40.596,64.871,40.555,64.591,40.765,64.183z"/>
<path fill-rule="evenodd" clip-rule="evenodd" fill="#0D7076" d="M36.25,55.829c0.296,0.171,0.402,0.431,0.358,0.762
	C36.347,56.404,36.262,56.135,36.25,55.829z"/>
<path fill-rule="evenodd" clip-rule="evenodd" fill="#0D7076" d="M36.606,56.581c0.335,0.125,0.38,0.393,0.349,0.701
	C36.713,57.111,36.613,56.869,36.606,56.581z"/>
<path fill-rule="evenodd" clip-rule="evenodd" d="M40.421,63.814c0.404-0.133,0.332,0.174,0.358,0.389
	C40.409,64.304,40.403,64.07,40.421,63.814z"/>
<path fill-rule="evenodd" clip-rule="evenodd" fill="#0D7076" d="M37.898,58.653c0.028,0.116,0.056,0.232,0.084,0.349
	c-0.056-0.073-0.122-0.141-0.163-0.222C37.809,58.757,37.871,58.697,37.898,58.653z"/>
<path fill-rule="evenodd" clip-rule="evenodd" fill="#0D7076" d="M37.302,57.96c0.268-0.049,0.332,0.137,0.386,0.334
	C37.56,58.182,37.431,58.072,37.302,57.96z"/>
<path fill-rule="evenodd" clip-rule="evenodd" fill="#078F91" d="M455.907,250.144c-0.713,0.145-0.998,0.755-1.329,1.279
	c-3.113,4.917-6.216,9.841-9.313,14.77c-2.575,4.099-5.142,8.202-7.705,12.308c-3.814,6.11-7.618,12.227-11.435,18.335
	c-3.084,4.936-6.187,9.859-9.271,14.795c-3.847,6.157-7.679,12.324-11.525,18.481c-3.084,4.936-6.191,9.856-9.271,14.795
	c-3.598,5.77-7.173,11.553-10.769,17.323c-0.641,1.027-1.329,2.024-2.003,3.03c-0.253,0.379-0.5,0.886-1.057,0.681
	c-0.538-0.198-0.395-0.766-0.432-1.211c-0.01-0.114-0.003-0.23-0.003-0.346c0.006-6.461,0.012-12.922,0.019-19.383
	c0.965,0.065,1.435-0.573,1.878-1.284c1.92-3.081,3.856-6.151,5.779-9.23c2.626-4.203,5.245-8.41,7.867-12.614
	c3.811-6.112,7.618-12.227,11.435-18.335c3.084-4.936,6.185-9.86,9.269-14.796c3.848-6.157,7.68-12.323,11.527-18.481
	c3.053-4.887,6.123-9.763,9.177-14.649c3.877-6.206,7.74-12.421,11.618-18.627c3.146-5.033,6.304-10.059,9.46-15.085
	c0.735-1.171,1.492-2.33,2.227-3.501c0.347-0.553,0.729-1.045,1.431-1.146c-0.697,3.292-1.365,6.591-2.1,9.875
	c-0.749,3.352-1.555,6.691-2.352,10.031C457.997,241.489,456.949,245.816,455.907,250.144z"/>
<path fill-rule="evenodd" clip-rule="evenodd" fill="#0D7076" d="M475.995,64.534c1.007-2.094,1.892-4.256,3.434-6.045
	c-0.655,2.176-1.701,4.164-2.918,6.069C476.339,64.55,476.167,64.542,475.995,64.534z"/>
<path fill-rule="evenodd" clip-rule="evenodd" fill="#0D7076" d="M482.865,89.96l-0.116,0.02l-0.115-0.024
	c0.116-2.516-0.007-5.052,0.63-7.526c0.219,2.087-0.074,4.176,0.007,6.264C483.289,89.173,483.104,89.571,482.865,89.96z"/>
<path fill-rule="evenodd" clip-rule="evenodd" fill="#0D7076" d="M483.517,78.764c-0.017,1.22,0.383,2.471-0.27,3.644
	C483.284,81.19,482.964,79.945,483.517,78.764z"/>
<path fill-rule="evenodd" clip-rule="evenodd" d="M475.995,64.534c0.172,0.008,0.344,0.016,0.516,0.023
	c-0.177,0.247-0.197,0.619-0.569,0.708C475.644,64.999,475.929,64.775,475.995,64.534z"/>
<path fill-rule="evenodd" clip-rule="evenodd" fill="#0D7076" d="M479.771,57.639c0.019-0.284,0.132-0.521,0.354-0.705
	C480.099,57.216,480.042,57.481,479.771,57.639z"/>
<path fill-rule="evenodd" clip-rule="evenodd" fill="#0D7076" d="M479.422,58.501c-0.004-0.341,0.089-0.643,0.356-0.873
	C479.763,57.961,479.634,58.248,479.422,58.501z"/>
<path fill-rule="evenodd" clip-rule="evenodd" d="M475.248,66.3c-0.022-0.315,0.027-0.594,0.365-0.729
	C475.888,66.013,475.766,66.255,475.248,66.3z"/>
<path fill-rule="evenodd" clip-rule="evenodd" d="M474.9,66.99c-0.02-0.314,0.029-0.592,0.366-0.726
	C475.541,66.706,475.422,66.949,474.9,66.99z"/>
<path fill-rule="evenodd" clip-rule="evenodd" fill="#0D7076" d="M480.117,56.947c0.05-0.197,0.167-0.334,0.356-0.408
	C480.355,56.674,480.236,56.81,480.117,56.947z"/>
<path fill-rule="evenodd" clip-rule="evenodd" d="M475.594,65.598c0.037-0.215-0.034-0.539,0.379-0.376
	C475.956,65.459,475.993,65.748,475.594,65.598z"/>
<path fill-rule="evenodd" clip-rule="evenodd" d="M384.208,461.203c0.015-0.259,0.069-0.49,0.373-0.554
	C384.559,460.903,384.395,461.06,384.208,461.203z"/>
<path fill-rule="evenodd" clip-rule="evenodd" d="M35.701,461.367c0.687-1.207,1.217-2.515,2.249-3.5
	c0.31,0.416,0.053,0.786-0.172,1.077C37.127,459.785,36.7,460.824,35.701,461.367z"/>
<path fill-rule="evenodd" clip-rule="evenodd" d="M298.349,371.78c-0.007-0.27-0.014-0.54-0.021-0.811
	C298.709,371.23,298.779,371.499,298.349,371.78z"/>
<path fill-rule="evenodd" clip-rule="evenodd" d="M298.35,371.01c-0.38-0.111-0.374-0.419-0.371-0.727
	C298.423,370.361,298.344,370.707,298.35,371.01z"/>
</svg>
