<?xml version="1.0" encoding="utf-8"?>
<!-- Generator: Adobe Illustrator 16.0.0, SVG Export Plug-In . SVG Version: 6.00 Build 0)  -->
<!DOCTYPE svg PUBLIC "-//W3C//DTD SVG 1.1//EN" "http://www.w3.org/Graphics/SVG/1.1/DTD/svg11.dtd">
<svg version="1.1" id="Layer_1" xmlns="http://www.w3.org/2000/svg" xmlns:xlink="http://www.w3.org/1999/xlink" x="0px" y="0px"
	 width="512px" height="512px" viewBox="0 0 512 512" enable-background="new 0 0 512 512" xml:space="preserve">
<path fill-rule="evenodd" clip-rule="evenodd" d="M225.788,405.605c-20.488,0.09-40.978,0.322-61.462,0.096
	c-2.611-0.029-5.691-1.938-7.718-3.857c-37.821-35.838-75.518-71.809-113.237-107.756c-6.387-6.086-12.707-12.246-19.147-18.275
	c-6.591-6.17-7.003-11.416-0.929-18.016c23.883-25.956,47.837-51.844,71.74-77.78c17.701-19.206,35.402-38.412,53.013-57.7
	c3.461-3.79,7.274-5.845,12.596-5.785c17.989,0.201,35.982,0.077,54.728,0.077c-36.197,42.778-72.054,85.154-108.547,128.281
	c2.446,0,4.028,0,5.61,0c56.496,0,112.993-0.038,169.489,0.085c3.808,0.008,5.795-0.985,7.597-4.56
	c24.512-48.64,49.23-97.175,73.892-145.738c0.874-1.722,1.686-3.476,2.799-5.778c-50.392,9.212-100.155,18.309-150.814,27.569
	c4.276-10.685,8.187-20.462,12.104-30.237c2.154-5.374,4.387-10.718,6.459-16.123c1.506-3.93,4.38-6.15,8.318-7.109
	c48.23-11.736,96.465-23.449,144.697-35.178c9.814-2.386,19.623-4.796,29.429-7.217c6.941-1.713,11.472,0.524,13.981,7.502
	c5.588,15.539,10.99,31.145,16.429,46.737c13.824,39.626,27.503,79.305,41.56,118.849c2.385,6.707,2.024,12.192-1.714,18.248
	c-9.302,15.066-18.12,30.432-27.373,46.083c-16.929-49.17-33.716-97.929-50.813-147.59c-4.386,8.676-8.456,16.698-12.5,24.733
	c-21.431,42.584-42.833,85.181-64.332,127.73c-1.251,2.477-1.34,4.195,0.269,6.662c28.536,43.734,56.946,87.553,85.392,131.348
	c0.615,0.947,1.331,1.83,2.457,3.367c13.185-48.768,26.189-96.873,39.497-146.096c3.34,4.701,6.186,8.615,8.936,12.594
	c6.508,9.416,12.739,19.031,19.533,28.234c4.333,5.869,2.391,11.729,1.107,17.598c-10.132,46.361-20.404,92.693-30.587,139.043
	c-1.882,8.564-3.516,17.184-5.339,25.76c-1.536,7.221-6.456,10.822-13.705,9.605c-26.965-4.527-53.9-9.234-80.855-13.822
	c-22.375-3.809-44.763-7.543-67.143-11.316c-12.075-2.037-24.147-4.09-36.22-6.137c-5.323-0.902-8.896-3.721-10.901-8.912
	c-5.598-14.48-11.426-28.875-17.189-43.291c-0.295-0.738-0.843-1.373-1.27-2.051c51.36,7.793,102.718,15.584,154.676,23.465
	c-0.94-1.664-1.51-2.832-2.222-3.904c-29.675-44.707-59.333-89.426-89.168-134.027c-1.096-1.639-3.932-2.992-5.961-2.996
	c-57.303-0.16-114.605-0.131-171.909-0.113c-1.159,0-2.319,0.232-3.352,0.342c3.922,4.096,7.518,8.031,11.305,11.773
	c23.195,22.922,46.449,45.781,69.65,68.695C201.058,380.978,213.408,393.306,225.788,405.605z"/>
<path fill-rule="evenodd" clip-rule="evenodd" fill="#FFFFFF" d="M225.788,405.605c-12.38-12.299-24.73-24.627-37.146-36.889
	c-23.201-22.914-46.455-45.773-69.65-68.695c-3.787-3.742-7.383-7.678-11.305-11.773c1.032-0.109,2.192-0.342,3.352-0.342
	c57.304-0.018,114.606-0.047,171.909,0.113c2.029,0.004,4.865,1.357,5.961,2.996c29.835,44.602,59.493,89.32,89.168,134.027
	c0.712,1.072,1.281,2.24,2.222,3.904c-51.958-7.881-103.315-15.672-154.676-23.465C225.618,405.478,225.788,405.605,225.788,405.605
	z"/>
</svg>
