<?xml version="1.0" encoding="utf-8"?>
<!-- Generator: Adobe Illustrator 16.0.0, SVG Export Plug-In . SVG Version: 6.00 Build 0)  -->
<!DOCTYPE svg PUBLIC "-//W3C//DTD SVG 1.1//EN" "http://www.w3.org/Graphics/SVG/1.1/DTD/svg11.dtd">
<svg version="1.1" id="Layer_1" xmlns="http://www.w3.org/2000/svg" xmlns:xlink="http://www.w3.org/1999/xlink" x="0px" y="0px"
	 width="1111.5px" height="512px" viewBox="0 0 1111.5 512" enable-background="new 0 0 1111.5 512" xml:space="preserve">
<path d="M225.788,405.605c-20.488,0.09-40.978,0.321-61.462,0.096c-2.611-0.029-5.691-1.938-7.718-3.857
	c-37.821-35.838-75.518-71.809-113.237-107.756c-6.387-6.086-12.707-12.246-19.147-18.275c-6.591-6.17-7.003-11.416-0.929-18.016
	c23.883-25.956,47.837-51.844,71.74-77.78c17.701-19.206,35.402-38.412,53.013-57.7c3.461-3.79,7.274-5.845,12.596-5.785
	c17.989,0.201,35.982,0.077,54.728,0.077c-36.197,42.778-72.054,85.154-108.547,128.281c2.446,0,4.028,0,5.61,0
	c56.496,0,112.993-0.038,169.489,0.085c3.809,0.008,5.795-0.985,7.598-4.56c24.512-48.64,49.229-97.175,73.892-145.738
	c0.874-1.722,1.687-3.476,2.799-5.778c-50.392,9.212-100.155,18.309-150.814,27.569c4.276-10.685,8.187-20.462,12.104-30.237
	c2.154-5.374,4.387-10.718,6.459-16.123c1.506-3.93,4.38-6.15,8.318-7.109c48.23-11.736,96.465-23.449,144.698-35.178
	c9.813-2.386,19.623-4.796,29.429-7.217c6.94-1.713,11.472,0.524,13.98,7.502c5.588,15.539,10.99,31.145,16.43,46.737
	c13.823,39.626,27.503,79.305,41.56,118.849c2.385,6.707,2.024,12.192-1.714,18.248c-9.302,15.066-18.12,30.432-27.373,46.083
	c-16.929-49.17-33.716-97.929-50.813-147.59c-4.386,8.676-8.455,16.698-12.5,24.733c-21.431,42.584-42.832,85.181-64.332,127.73
	c-1.25,2.477-1.34,4.194,0.27,6.662c28.536,43.733,56.945,87.553,85.393,131.348c0.614,0.947,1.33,1.83,2.457,3.367
	c13.185-48.769,26.188-96.873,39.496-146.096c3.34,4.7,6.187,8.614,8.937,12.594c6.508,9.416,12.738,19.031,19.532,28.233
	c4.334,5.869,2.392,11.729,1.107,17.599c-10.132,46.36-20.404,92.692-30.587,139.043c-1.882,8.563-3.516,17.184-5.339,25.76
	c-1.536,7.221-6.456,10.822-13.705,9.604c-26.965-4.526-53.9-9.233-80.855-13.821c-22.375-3.81-44.763-7.543-67.143-11.316
	c-12.075-2.037-24.146-4.09-36.22-6.137c-5.323-0.902-8.896-3.722-10.901-8.912c-5.598-14.48-11.426-28.875-17.189-43.291
	c-0.295-0.738-0.843-1.373-1.27-2.051c51.359,7.793,102.719,15.584,154.676,23.465c-0.939-1.664-1.51-2.832-2.222-3.904
	c-29.675-44.707-59.333-89.426-89.168-134.027c-1.097-1.639-3.933-2.992-5.961-2.996c-57.303-0.159-114.605-0.131-171.909-0.112
	c-1.159,0-2.319,0.231-3.352,0.342c3.922,4.097,7.518,8.031,11.305,11.773c23.195,22.922,46.449,45.78,69.65,68.694
	C201.058,380.978,213.408,393.306,225.788,405.605z"/>
<path fill="#FFFFFF" d="M225.788,405.605c-12.38-12.3-24.73-24.628-37.146-36.89c-23.201-22.914-46.455-45.772-69.65-68.694
	c-3.787-3.742-7.383-7.679-11.305-11.773c1.032-0.109,2.192-0.342,3.352-0.342c57.304-0.018,114.606-0.047,171.909,0.113
	c2.028,0.004,4.864,1.356,5.961,2.996c29.835,44.602,59.493,89.319,89.168,134.026c0.712,1.072,1.28,2.24,2.222,3.904
	c-51.958-7.881-103.314-15.672-154.676-23.465C225.618,405.478,225.788,405.605,225.788,405.605z"/>
<path fill-rule="evenodd" clip-rule="evenodd" d="M856.806,26.183c131.374,0,236.196,105.232,236.083,237.008
	c-0.113,129.929-105.784,235.148-236.143,235.131c-131.341-0.02-236.232-105.398-235.996-237.095
	C620.983,130.743,725.994,26.183,856.806,26.183z M636.54,261.632c-0.021,122.771,97.818,221.009,220.156,221.063
	c121.229,0.052,220.272-98.297,220.562-219.008c0.297-122.888-97.412-221.581-219.502-221.713
	C734.661,41.841,636.561,139.254,636.54,261.632z"/>
<path fill-rule="evenodd" clip-rule="evenodd" fill="#FFFFFF" d="M636.54,261.632c0.021-122.378,98.121-219.791,221.216-219.658
	c122.09,0.132,219.799,98.825,219.502,221.713c-0.289,120.711-99.333,219.06-220.562,219.008
	C734.358,482.641,636.52,384.402,636.54,261.632z M868.673,176.664c4.18,12.234,10.48,22.734,10.933,33.484
	c1.381,32.781,0.681,65.657,0.431,98.496c-0.109,14.483-16.438,27.57-33.321,27.106c-17.067-0.473-20.832-11.074-20.664-26.042
	c0.454-40.454,0.155-80.919,0.155-120.928c-26.096-8.341-25.449-24.698,1.03-60.9c-48.837,3.429-108.686,62.871-107.051,123.918
	c5.543-9.208,9.467-19.283,16.481-26.237c5.53-5.487,16.09-11.161,22.159-9.319c5.792,1.76,11.869,12.963,12.248,20.303
	c1.426,27.612,0.142,55.356,0.751,83.029c0.341,15.388,1.216,29.978-22.607,28.953c22.559,26.522,48.49,40.813,78.38,48.897
	c18.947,5.123,35.115,3.152,47.056-14.619c4.98-7.416,11.464-13.82,18.198-21.787c9.185,10.622,16.242,18.785,23.637,27.337
	c38.485-19.362,63.809-46.307,76.47-87.731c-13.582,9.146-24.124,17.735-35.966,23.788c-11.271,5.763-20.532,2.892-20.727-12.196
	c-0.44-34.122-3.417-68.539,0.129-102.26c2.019-19.211,14.516-37.441,23.009-55.784c2.399-5.184,7.323-9.202,13.031-16.1
	c-35.22,5.83-59.6,24.014-81.131,44.943C882.869,180.648,875.649,178.621,868.673,176.664z"/>
<path fill-rule="evenodd" clip-rule="evenodd" d="M868.673,176.664c6.977,1.957,14.196,3.984,22.631,6.351
	c21.531-20.929,45.911-39.113,81.131-44.943c-5.708,6.898-10.632,10.916-13.031,16.1c-8.493,18.343-20.99,36.573-23.009,55.784
	c-3.546,33.721-0.569,68.138-0.129,102.26c0.194,15.088,9.456,17.959,20.727,12.196c11.842-6.053,22.384-14.643,35.966-23.788
	c-12.661,41.425-37.984,68.369-76.47,87.731c-7.395-8.552-14.452-16.715-23.637-27.337c-6.734,7.967-13.218,14.371-18.198,21.787
	c-11.94,17.771-28.108,19.742-47.056,14.619c-29.89-8.084-55.821-22.375-78.38-48.897c23.823,1.024,22.948-13.565,22.607-28.953
	c-0.609-27.673,0.675-55.417-0.751-83.029c-0.379-7.34-6.456-18.542-12.248-20.303c-6.069-1.842-16.629,3.833-22.159,9.319
	c-7.015,6.955-10.938,17.029-16.481,26.237c-1.635-61.047,58.214-120.489,107.051-123.918c-26.479,36.203-27.126,52.56-1.03,60.9
	c0,40.008,0.299,80.474-0.155,120.928c-0.168,14.968,3.597,25.569,20.664,26.042c16.884,0.464,33.212-12.623,33.321-27.106
	c0.25-32.839,0.95-65.715-0.431-98.496C879.153,199.398,872.853,188.898,868.673,176.664z"/>
<line fill="none" stroke="#000000" stroke-width="3" stroke-miterlimit="10" x1="555.75" y1="20.055" x2="555.75" y2="491.244"/>
</svg>
