<?xml version="1.0" encoding="utf-8"?>
<!-- Generator: Adobe Illustrator 16.0.0, SVG Export Plug-In . SVG Version: 6.00 Build 0)  -->
<!DOCTYPE svg PUBLIC "-//W3C//DTD SVG 1.1//EN" "http://www.w3.org/Graphics/SVG/1.1/DTD/svg11.dtd">
<svg version="1.1" id="Layer_1" xmlns="http://www.w3.org/2000/svg" xmlns:xlink="http://www.w3.org/1999/xlink" x="0px" y="0px"
	 width="512px" height="512px" viewBox="0 0 512 512" enable-background="new 0 0 512 512" xml:space="preserve">
<g>
	<path fill-rule="evenodd" clip-rule="evenodd" fill="#DE212E" d="M231.926,44.391c0.606-1,1.214-1.999,1.82-2.999
		c0.208-0.293,0.417-0.586,0.625-0.879c0.374-0.49,0.747-0.98,1.12-1.471c7.7-7.41,16.668-10.591,27.244-7.85
		c11.502,2.982,19.53,13.356,19.758,25.25c0.022,1.158,0.063,2.315,0.097,3.473c-0.557,2.27-1.113,4.54-1.668,6.81
		c-1.804,2.887-3.609,5.774-5.414,8.662c-2.859,2.465-5.863,4.722-9.254,6.426c-0.426-0.087-0.766-0.006-0.908,0.462l0.027-0.038
		c-5.049,1.479-10.194,1.666-15.393,1.137c-1.018-0.603-2.188-0.247-3.32-0.713c-7.799-3.22-12.869-9.019-16.205-16.559
		c0.138-0.65-0.134-1.144-0.6-1.563c-0.298-1.536-0.597-3.07-0.895-4.606C228.841,54.542,229.663,49.328,231.926,44.391z"/>
	<path fill-rule="evenodd" clip-rule="evenodd" fill="#DE212E" d="M327.536,422.848c-10.093,4.51-20.512,8.145-31.04,11.478
		c-0.787,0.139-1.573,0.278-2.359,0.418c-0.306,0.117-0.611,0.234-0.918,0.352c-3.302,0.621-6.603,1.241-9.904,1.86
		c-0.236,0.043-0.473,0.085-0.708,0.128c-0.523,0.013-1.048,0.025-1.571,0.039c-5.438,0.664-10.873,1.329-16.311,1.994
		c-1.559,0.043-3.12,0.086-4.68,0.129c-2.824-0.34-5.648-0.336-8.471,0.002c-0.523-0.005-1.045-0.011-1.566-0.016
		c-5.695-0.51-11.391-1.022-17.085-1.534c-0.512-0.049-1.026-0.096-1.54-0.144c-0.952-0.547-1.963-0.785-3.058-0.58
		c-0.536-0.061-1.072-0.12-1.608-0.18c-0.695-0.425-1.417-0.727-2.255-0.496c-0.539-0.089-1.077-0.177-1.615-0.267
		c-0.692-0.466-1.428-0.754-2.284-0.567c-0.533-0.066-1.066-0.136-1.599-0.202c-10.526-3.002-20.949-6.305-31.02-10.635
		c-0.257-0.096-0.515-0.192-0.772-0.288c-0.234-0.138-0.468-0.275-0.702-0.412c-0.835-0.369-1.671-0.739-2.507-1.107
		c-0.189-0.112-0.378-0.223-0.568-0.335c-0.84-0.408-1.681-0.814-2.521-1.22c-0.195-0.119-0.39-0.24-0.584-0.36
		c-0.302-0.142-0.603-0.281-0.904-0.425c-0.228-0.146-0.456-0.293-0.684-0.441c-7.836-4.249-15.023-9.521-22.507-14.325
		c-0.285-0.235-0.569-0.473-0.854-0.71c-0.78-1.086-1.688-2.012-3.031-2.383c-0.275-0.242-0.55-0.482-0.826-0.725
		c-3.628-3.296-7.258-6.591-10.886-9.887l-0.006-0.217l-0.217,0.006c-0.162-0.162-0.324-0.324-0.487-0.486
		c-0.351-0.357-0.702-0.715-1.053-1.072c-0.167-0.168-0.334-0.337-0.503-0.505c-0.341-0.348-0.682-0.694-1.022-1.043
		c-0.178-0.183-0.355-0.365-0.533-0.549c-0.315-0.332-0.631-0.665-0.945-0.999c-0.203-0.21-0.405-0.421-0.608-0.631
		c-0.271-0.307-0.54-0.614-0.81-0.92c-2.32-3.79-5.802-6.61-8.454-10.122c-0.457-1.274-1.19-2.338-2.333-3.094
		c-0.2-0.991-0.731-1.755-1.592-2.289c-6.297-10.022-12.243-20.234-17.145-31.028c-3.646-10.619-7.676-21.127-9.442-32.292
		c-0.143-0.906-0.827-1.243-1.313-1.806c0.525-2.684-0.94-5.16-0.818-7.802c0.771-0.784,0.367-1.7,0.266-2.565
		c-1.206-10.294-1.263-20.591-0.634-30.941c0.686-11.279,3.166-22.205,5.577-33.166c0.132-0.421,0.263-0.842,0.395-1.264
		c0.111-0.333,0.221-0.667,0.332-1c1.134-3.404,2.268-6.81,3.401-10.214c0.671-0.606,0.434-1.335,0.277-2.054
		c0.288-0.297,0.576-0.594,0.864-0.89c4.79-10.747,10.265-21.129,16.508-31.106c0.337-0.491,0.674-0.98,1.012-1.471
		c0.205-0.288,0.408-0.575,0.612-0.863c0.321-0.469,0.642-0.938,0.961-1.406c0.224-0.301,0.448-0.603,0.673-0.904
		c0.512-0.694,1.025-1.388,1.538-2.082c0.564-0.115,0.805-0.467,0.756-1.03l0.041-0.065c2.287-2.386,4.455-4.866,6.223-7.673
		l0.019-0.019c0.243-0.255,0.486-0.51,0.729-0.765l0.033-0.038c0.229-0.25,0.458-0.501,0.687-0.752l0.072-0.082
		c0.215-0.232,0.43-0.466,0.646-0.698c2.406-2.52,4.813-5.04,7.219-7.56c2.292-1.573,4.268-3.487,6.049-5.611
		c2.597-2.131,5.194-4.261,7.791-6.392c0.238-0.199,0.476-0.399,0.713-0.598l0.073-0.057c0.262-0.228,0.526-0.455,0.788-0.681
		l0.018-0.017c3.653-2.561,7.307-5.122,10.96-7.683c0.23-0.107,0.46-0.215,0.69-0.322c0.244-0.172,0.487-0.343,0.731-0.516
		c0.515-0.305,1.03-0.61,1.546-0.915c0.306-0.194,0.614-0.389,0.921-0.583c0.285,0.023,0.495-0.091,0.629-0.343
		c5.18-2.731,10.359-5.461,15.54-8.192c4.445-1.438,8.692-3.346,12.874-5.41l0.283,0.035c3.903-1.167,7.807-2.334,11.71-3.5
		c0.496-0.154,0.992-0.308,1.488-0.462c1.637,0.008,3.152-0.487,4.633-1.122c8.003-1.213,16.007-2.427,24.011-3.64
		c0.806-0.051,1.611-0.104,2.417-0.156c0.477-0.031,0.955-0.06,1.433-0.091c1.07,0.175,2.136,0.284,3.155-0.236
		c5.42,0.111,10.84,0.223,16.259,0.335c0.55,0.032,1.1,0.065,1.648,0.098c3.056,0.658,6.146,0.988,9.274,0.94
		c1.046,0.155,2.091,0.312,3.136,0.466c7.207,1.602,14.414,3.203,21.621,4.804c0.268,0.05,0.537,0.101,0.804,0.151
		c1.131,0.878,2.454,1.192,3.845,1.31c6.705,2.68,13.41,5.36,20.114,8.039c5.461,3.014,10.922,6.027,16.382,9.042
		c0.12,0.232,0.311,0.332,0.569,0.301c4.966,3.594,9.93,7.187,14.895,10.78l0.004,0.003c0.268,0.238,0.536,0.475,0.805,0.712
		l0.035,0.029c0.255,0.22,0.509,0.439,0.765,0.659l0.105,0.088c0.205,0.188,0.408,0.377,0.613,0.566
		c1.035,0.864,2.071,1.729,3.107,2.593c3.32,3.191,6.641,6.381,9.961,9.572c0.365,0.411,0.729,0.822,1.095,1.233
		c0.206,0.214,0.413,0.427,0.62,0.642c0.291,0.306,0.582,0.612,0.873,0.918c0.224,0.238,0.447,0.478,0.671,0.716l0.055,0.064
		c0.231,0.258,0.464,0.517,0.697,0.776l0.017,0.019c0.188,0.822,0.657,1.384,1.486,1.617l-0.018-0.017
		c3.392,4.347,6.782,8.695,10.174,13.042c0.357,0.559,0.715,1.117,1.073,1.676c0.162,0.202,0.326,0.404,0.489,0.606l0.064,0.092
		c3.265,5.528,6.531,11.057,9.797,16.585c1.397,3.266,2.458,6.7,4.774,9.504l0.027,0.308c0.169,1.305,0.613,2.49,1.514,3.475
		c0.109,0.397,0.219,0.794,0.328,1.191c1.606,4.926,3.214,9.852,4.821,14.778c-0.01,0.294,0.124,0.477,0.4,0.547l0.047,0.135
		c1.138,4.681,2.274,9.362,3.411,14.043c0.238,4.97,1.298,9.825,2.11,14.712c0.041,0.484,0.081,0.971,0.122,1.455
		c0.009,2.095-0.122,4.202,0.554,6.236c0.14,13.798-0.755,27.52-3.028,41.138c-1.31,5.164-2.619,10.327-3.929,15.491
		c-1.847,5.17-3.695,10.339-5.544,15.509l-0.006,0.013c-0.137,0.24-0.273,0.481-0.411,0.721c-0.16,0.436-0.32,0.87-0.48,1.307
		c-0.174,0.35-0.347,0.699-0.521,1.05c-0.197,0.186-0.264,0.41-0.196,0.674c-1.99,3.921-3.979,7.843-5.969,11.765
		c-0.229,0.111-0.319,0.293-0.272,0.543c-0.205,0.335-0.41,0.672-0.615,1.008c-2.878,4.633-5.757,9.267-8.635,13.9
		c-4.142,5.174-8.281,10.348-12.422,15.52l0.051-0.039c-0.256,0.281-0.511,0.564-0.766,0.848l0.004-0.004
		c-0.245,0.263-0.49,0.523-0.735,0.786c-0.823,0.248-1.355,0.778-1.567,1.618c-4.392,4.121-8.784,8.24-13.177,12.359
		c-0.268,0.249-0.535,0.499-0.803,0.747C349.753,409.645,339.057,416.885,327.536,422.848z M299.83,319.656l-0.2,0.141
		c-0.305,0.209-0.609,0.418-0.914,0.627c-0.645-0.04-1.166,0.142-1.423,0.796c-1.521,0.383-2.851,1.103-3.923,2.263
		c-0.677,0.009-1.197,0.271-1.487,0.912c-0.99,0.169-1.821,0.606-2.416,1.441l0.04-0.033c-1.064,0.184-1.93,0.703-2.602,1.547
		l-0.313-0.021l-0.171,0.261c-0.952,0.161-1.748,0.58-2.314,1.383l0.003-0.001c-5.933,2.952-11.631,6.302-17.075,10.081
		c-0.684-0.02-1.188,0.271-1.506,0.877c-5.201,3.197-10.387,6.588-16.35,1.504c-4.305-3.092-8.901-5.683-13.656-8.002
		c-5.253-3.52-10.751-6.607-16.424-9.391c-0.302-0.165-0.603-0.332-0.905-0.497c-4.708-3.181-9.64-5.967-14.756-8.431
		c-3.977-2.364-7.803-5.049-11.971-7.006c-4.684-2.196-7.529-5.006-6.396-10.563c0.364-1.786-0.117-3.078-2.29-3.711
		c-7.166-2.084-14.26-4.415-21.382-6.651c-4.134-1.396-8.3-2.704-12.386-4.229c-2.146-0.798-2.713-0.188-2.709,1.954
		c0.028,17.404-0.002,34.811-0.034,52.216c-0.002,1.35,0.102,2.545,1.489,3.276c3.065,1.616,6.099,3.291,9.147,4.943
		c10.072,6.429,20.455,12.319,31.016,17.904c10.125,6.428,20.528,12.376,31.078,18.072c1.877,1.453,3.901,2.648,6.117,3.508
		c0.272,0.175,0.543,0.351,0.815,0.525c0.169,0.233,0.397,0.329,0.682,0.287c2.411,1.886,5.021,3.432,7.875,4.553
		c6.057,3.586,12.235,6.986,18.119,10.837c3.03,1.982,5.317,1.928,7.673-0.668c0.213-0.105,0.426-0.21,0.64-0.315
		c0.256-0.169,0.511-0.337,0.767-0.505c0.668,0.03,1.202-0.176,1.474-0.84c6.578-3.017,12.637-6.959,18.852-10.618
		c4.87-2.867,10.086-5.171,14.493-8.799c11.261-5.425,21.808-12.101,32.49-18.54c4.074-2.04,8.159-4.059,11.752-6.916
		c5.479-2.365,10.48-5.575,15.497-8.758c0.288-0.182,0.576-0.361,0.863-0.542c0.231-0.116,0.464-0.234,0.695-0.351
		c0.227-0.164,0.452-0.327,0.679-0.489l0.054-0.03c2.032-1.074,4.05-2.178,6.102-3.21c1.377-0.694,1.563-1.84,1.56-3.218
		c-0.046-17.486-0.059-34.973-0.082-52.461c-0.001-1.156,0.164-2.491-1.298-2.871c-2.328-0.604-4.466-2.071-7.037-1.628
		c-5.531-2.077-10.955-4.47-16.773-5.705c-0.345-0.132-0.691-0.264-1.036-0.396c-0.311-0.069-0.622-0.14-0.934-0.207
		c-0.333-0.498-0.788-0.666-1.365-0.506c-0.477-0.133-0.951-0.264-1.427-0.396c-0.305-0.126-0.609-0.252-0.913-0.38
		c-0.507-0.121-1.013-0.242-1.52-0.361c-0.26-0.113-0.521-0.226-0.781-0.338c-0.521-0.138-1.042-0.276-1.562-0.414
		c-0.386-0.587-0.945-0.665-1.574-0.539c-0.279-0.071-0.559-0.143-0.837-0.214c-5.566-2.152-11.212-4.05-17.033-5.399
		c-0.084-0.22-0.231-0.275-0.441-0.171c-0.357-0.129-0.714-0.258-1.07-0.386c-0.289-0.079-0.579-0.156-0.868-0.236
		c-0.368-0.492-0.855-0.631-1.438-0.486c-0.451-0.137-0.903-0.273-1.354-0.409c-0.327-0.121-0.658-0.241-0.987-0.36
		c-7.865-2.693-15.732-5.377-23.788-7.467c-5.393-2.162-10.911-3.925-16.574-5.229l-0.018-0.008
		c-0.377-0.518-0.864-0.762-1.511-0.61c-9.295-2.91-18.59-5.822-27.886-8.735c-5.577-2.19-11.265-4.031-17.106-5.385l-0.142-0.204
		l-0.247,0.027c-0.378-0.132-0.757-0.264-1.136-0.396c-0.279-0.07-0.558-0.139-0.837-0.208c-0.365-0.532-0.869-0.67-1.474-0.518
		c-0.437-0.129-0.873-0.257-1.31-0.385c-0.343-0.127-0.686-0.254-1.029-0.382c-0.278-0.083-0.556-0.166-0.834-0.25
		c0.038-0.502,0.075-1.006,0.113-1.509l-0.021,0.014c2.568-0.865,4.797-2.318,6.903-3.983c4.372-1.925,8.435-4.397,12.401-7.036
		c0.342-0.195,0.684-0.389,1.026-0.583c0.262,0.035,0.45-0.067,0.563-0.305c0.277-0.175,0.554-0.349,0.832-0.522
		c0.224-0.117,0.448-0.233,0.672-0.35c2.604-1.075,5.034-2.447,7.219-4.237c0.258,0.052,0.45-0.037,0.578-0.267
		c0.307-0.184,0.614-0.366,0.922-0.55c0.283,0.028,0.496-0.082,0.639-0.327c0.256-0.168,0.512-0.334,0.769-0.501
		c0.979-0.134,1.737-0.664,2.408-1.351l0.327,0.035l0.154-0.309l0.154-0.076c0.318-0.194,0.637-0.389,0.953-0.583
		c0.284,0.026,0.504-0.08,0.658-0.319c0.245-0.171,0.488-0.343,0.732-0.515c0,0,0.02-0.014,0.02-0.013
		c4.838-3.982,9.238-2.322,13.547,1.002c0.59,0.455,1.365,0.666,2.056,0.99c0.055,0.208,0.185,0.279,0.39,0.213
		c0.166,0.492,0.488,0.734,1.021,0.638c0.232,0.11,0.468,0.219,0.701,0.329c0.306,0.19,0.612,0.38,0.918,0.57
		c0.537,0.299,1.074,0.597,1.611,0.895c3.359,2.456,6.909,4.592,10.715,6.289l-0.008-0.01c0.287,0.198,0.574,0.396,0.861,0.593
		c9.602,6.074,19.423,11.777,29.396,17.219c3.609,2.208,7.075,4.715,10.865,6.547c4.086,1.977,6.258,4.572,5.357,9.273
		c-0.272,1.422-0.063,2.746,1.798,3.284c9.762,2.825,19.263,6.497,29.146,8.928l0.015-0.017c0.304,0.155,0.608,0.313,0.912,0.469
		c1.22,0.361,2.441,0.72,3.663,1.078c2.354,1.688,3.324,1.165,3.259-1.803c-0.125-5.65-0.041-11.305-0.085-16.955
		c-0.087-11.551-0.199-23.1-0.304-34.65l-0.009-0.092c0.391-1.139,0.973-2.368-1.106-2.337c-0.567-1.363-1.538-2.231-3.024-2.47
		c-0.262-0.17-0.525-0.341-0.788-0.511c-0.144-0.24-0.354-0.344-0.63-0.311c-0.312-0.19-0.621-0.38-0.931-0.57
		c-0.247-0.117-0.494-0.233-0.741-0.351c-4.954-3.436-10.19-6.387-15.588-9.059c-4.908-3.314-10.062-6.202-15.351-8.855
		c-4.973-2.959-9.895-6.006-14.931-8.851c-5.004-2.827-9.6-6.448-15.263-8.021c-0.229-0.433-0.342-1.066-0.7-1.272
		c-10.416-5.97-20.854-11.898-31.292-17.833l-0.188-0.11l-0.137-0.326l-0.338,0.017c-0.67-0.683-1.418-1.221-2.409-1.313
		c-6.067-4.497-6.353-4.497-12.363,0.027L250,153.001c-5.879,2.763-11.375,6.195-16.856,9.651
		c-3.824,1.987-7.691,3.905-11.117,6.568l0.033-0.026c-1.071,0.183-1.953,0.694-2.647,1.527l-0.279-0.055l-0.162,0.233
		c-12.654,6.772-25.021,14.044-37.218,21.606l0.006-0.003c-1.052,0.172-1.907,0.686-2.598,1.489c-0.271-0.089-0.444,0.005-0.52,0.28
		c-0.94,0.148-1.739,0.537-2.289,1.347l-0.012,0.008c-2.866,1.15-5.559,2.602-7.947,4.583c-0.222,0.109-0.443,0.22-0.666,0.33
		c-0.243,0.165-0.485,0.33-0.729,0.495c-0.679-0.031-1.223,0.175-1.503,0.85c-1.925,0.589-3.604,1.6-5.076,2.963l-0.26-0.05
		l-0.123,0.233c-0.972,0.163-1.798,0.575-2.382,1.398l0.024-0.03c-3.768,1.826-7.579,3.58-10.796,6.344
		c-0.897,0.592-0.637,1.351-0.309,2.122c-0.313,5.255-0.317,10.509,0.002,15.763c-0.438,5.586-0.592,11.17,0.079,16.75
		c-0.445,4.51-0.449,9.021,0.003,13.531c-0.458,2.999-0.924,5.998,0.262,8.95c2.306,1.542,4.951,2.079,7.614,2.563
		c10.987,4.039,22.176,7.441,33.44,10.612c0.258,0.066,0.517,0.133,0.774,0.199c0.377,0.527,0.882,0.693,1.503,0.544
		c0.43,0.118,0.859,0.237,1.29,0.355c0.346,0.134,0.691,0.267,1.037,0.4c0.311,0.067,0.622,0.136,0.932,0.203
		c0.335,0.497,0.789,0.682,1.373,0.521c0.474,0.126,0.948,0.254,1.422,0.379c0.305,0.128,0.61,0.257,0.916,0.386
		c0.502,0.121,1.003,0.241,1.505,0.362c0.265,0.114,0.53,0.229,0.795,0.344c0.512,0.139,1.023,0.276,1.535,0.417
		c11.012,3.949,22.18,7.403,33.439,10.568c0.407,0.127,0.813,0.253,1.22,0.38c0.351,0.13,0.702,0.261,1.054,0.392
		c0.294,0.076,0.591,0.154,0.886,0.233c0.365,0.466,0.835,0.632,1.412,0.482c2.126,0.959,4.298,1.769,6.639,2.027
		c0.385,0.156,0.771,0.313,1.156,0.47c0.252,0.059,0.503,0.115,0.754,0.172c5.771,2.284,11.677,4.144,17.72,5.566
		c5.085,2.137,10.362,3.666,15.687,5.054c6.082,2.236,12.24,4.225,18.541,5.752c0.187,0.35,0.373,0.696,0.561,1.044
		C299.905,319.311,299.807,319.436,299.83,319.656z"/>
	<path fill-rule="evenodd" clip-rule="evenodd" fill="#DE212E" d="M467.108,439.371c-6.572,2.135-13.308,2.771-20.176,2.223
		c-0.756-0.076-1.513-0.151-2.271-0.227c-0.43-0.433-0.929-0.608-1.527-0.408c-0.712-0.148-1.424-0.297-2.135-0.445
		c-0.337-0.14-0.675-0.278-1.011-0.418c-0.467-0.111-0.935-0.224-1.402-0.336c-0.306-0.143-0.612-0.285-0.918-0.428
		c-0.511-0.167-1.021-0.338-1.532-0.507c-10.455-5.002-18.255-12.653-23.154-23.199c-0.514-3.413-2.902-6.319-2.677-9.93
		c-0.54-6.803-0.005-13.515,1.697-20.128c0.084-0.5,0.044-1.066,0.268-1.493c5.066-9.673,11.592-17.991,21.584-23.057
		c0.18-0.096,0.357-0.191,0.538-0.287c0.671-0.017,1.289-0.151,1.681-0.774c5.065-1.616,10.26-2.607,15.533-3.219
		c1.036,0.021,2.072,0.043,3.109,0.063c1.468,0.636,3.006,0.743,4.575,0.607c0.771,0.103,1.54,0.203,2.311,0.305
		c0.414,0.529,0.956,0.63,1.575,0.468c0.483,0.111,0.965,0.221,1.447,0.332c6.668,2.46,12.678,6.023,17.977,10.771
		c0.259,0.264,0.52,0.528,0.778,0.793c4.447,5.324,7.807,11.266,10.065,17.828c0.062,0.268,0.122,0.535,0.183,0.804
		c-0.145,0.688-0.04,1.312,0.47,1.83c0.309,3.521,0.615,7.04,0.923,10.56c-0.664,5.299-1.761,10.496-3.625,15.514
		C486.162,427.255,478.086,434.86,467.108,439.371z"/>
	<path fill-rule="evenodd" clip-rule="evenodd" fill="#DE212E" d="M79.424,417.289c-0.38-0.574-0.941-0.7-1.579-0.634
		c-0.352-0.568-0.834-0.855-1.521-0.703c-0.457-0.13-0.915-0.262-1.372-0.392c0.036-1.576-1.486-1.939-2.266-2.872
		c-2.854-3.414-5.403-6.955-5.692-11.617c0-5.841,1.942-10.951,5.782-15.348c0.239-0.002,0.389-0.121,0.448-0.354
		c0.223-0.199,0.443-0.397,0.667-0.598l0.068-0.055c0.286-0.221,0.572-0.44,0.858-0.661c1.527-0.831,3.053-1.662,4.58-2.491
		c5.267-1.362,10.43-1.142,15.466,1.016c0.759,0.497,1.518,0.995,2.278,1.492c0.296,0.229,0.591,0.459,0.886,0.689l0.034,0.028
		c0.255,0.222,0.511,0.443,0.768,0.666l0.111,0.087c3.882,4.406,6.175,9.405,5.758,15.419c-2.655,11.489-9.657,17.675-19.588,17.187
		C83.206,418.054,81.32,417.586,79.424,417.289z"/>
</g>
</svg>
