<?xml version="1.0" encoding="utf-8"?>
<!-- Generator: Adobe Illustrator 16.0.0, SVG Export Plug-In . SVG Version: 6.00 Build 0)  -->
<!DOCTYPE svg PUBLIC "-//W3C//DTD SVG 1.1//EN" "http://www.w3.org/Graphics/SVG/1.1/DTD/svg11.dtd">
<svg version="1.1" id="Layer_1" xmlns="http://www.w3.org/2000/svg" xmlns:xlink="http://www.w3.org/1999/xlink" x="0px" y="0px"
	 width="512px" height="512px" viewBox="0 0 512 512" enable-background="new 0 0 512 512" xml:space="preserve">
<path fill-rule="evenodd" clip-rule="evenodd" d="M421.932,258.075c-9.183-9.124-18.148-18.003-27.082-26.915
	c-14.738-14.703-29.471-29.41-44.176-44.145c-12.359-12.383-12.357-31.974-0.043-44.187c12.079-11.978,31.561-11.541,43.866,0.802
	c30.651,30.747,61.35,61.447,92.084,92.112c13.047,13.018,13.151,32.02,0.147,45.013c-30.952,30.927-61.863,61.895-92.826,92.81
	c-10.552,10.535-27.26,11.988-39.309,3.551c-15.875-11.117-17.682-33.5-3.808-47.572c5.521-5.599,11.116-11.122,16.677-16.681
	c17.547-17.538,35.095-35.075,52.634-52.621C420.631,259.707,421.08,259.086,421.932,258.075z"/>
<path fill-rule="evenodd" clip-rule="evenodd" d="M103.904,258.576c8.234,8.117,16.302,16.005,24.298,23.967
	c15.774,15.708,31.542,31.424,47.249,47.2c12.119,12.174,12.203,31.759,0.297,43.714c-12.148,12.198-31.501,12.2-43.847-0.122
	c-31.281-31.22-62.534-62.469-93.751-93.754c-11.445-11.47-11.347-31.235,0.08-42.659c31.103-31.095,62.203-62.193,93.319-93.276
	c12.58-12.566,31.856-12.789,44.071-0.553c12.198,12.218,11.95,31.728-0.525,44.18c-22.892,22.85-45.765,45.719-68.642,68.585
	C105.749,256.561,105.09,257.308,103.904,258.576z"/>
<path fill-rule="evenodd" clip-rule="evenodd" d="M304.226,73.714c20.408-0.027,34.846,18.673,29.581,38.73
	c-8.436,32.132-33.123,124.198-41.713,156.289c-8.075,30.168-30.185,112.326-38.236,142.5c-5.693,21.341-29.47,30.614-47.433,18.453
	c-11.088-7.507-15.707-20.646-11.982-34.616c8.102-30.39,30.298-112.754,38.431-143.135c8.392-31.346,32.789-122.691,41.113-154.055
	C277.932,83.018,289.444,73.733,304.226,73.714z"/>
</svg>
