<?xml version="1.0" encoding="utf-8"?>
<!-- Generator: Adobe Illustrator 16.0.0, SVG Export Plug-In . SVG Version: 6.00 Build 0)  -->
<!DOCTYPE svg PUBLIC "-//W3C//DTD SVG 1.1//EN" "http://www.w3.org/Graphics/SVG/1.1/DTD/svg11.dtd">
<svg version="1.1" id="Layer_1" xmlns="http://www.w3.org/2000/svg" xmlns:xlink="http://www.w3.org/1999/xlink" x="0px" y="0px"
	 width="512px" height="512px" viewBox="0 0 512 512" enable-background="new 0 0 512 512" xml:space="preserve">
<path fill-rule="evenodd" clip-rule="evenodd" fill="#61707B" d="M165.593,256.598c-0.237,23.701-18.381,41.422-42.124,41.141
	c-22.807-0.268-40.21-18.764-39.863-42.361c0.342-23.189,18.495-41.061,41.507-40.863
	C148.667,214.718,165.833,232.565,165.593,256.598z M124.349,289.12c18.491-0.121,31.856-13.938,31.895-32.971
	c0.038-18.572-14.146-33.252-32.022-33.145c-17.808,0.107-30.813,14.354-30.958,33.391
	C93.103,277.352,110.988,290.096,124.349,289.12z"/>
<path fill-rule="evenodd" clip-rule="evenodd" fill="#61707B" d="M325.537,280.065c0-20.844,0.131-40.107-0.104-59.365
	c-0.051-4.117,1.312-4.918,5.064-4.896c3.433,0.018,4.078,1.229,4.063,4.338c-0.11,23.643-0.024,47.285-0.135,70.928
	c-0.008,1.691,1.469,4.539-1.493,5.002c-2.604,0.404-5.424,0.895-7.656-2.018c-8.997-11.734-18.226-23.289-27.377-34.904
	c-7.099-9.01-14.209-18.012-21.312-27.012c-1.88,0.969-1.082,2.461-1.085,3.619c-0.04,18.322-0.064,36.645,0.033,54.967
	c0.019,3.439,0.154,5.816-4.728,5.828c-4.818,0.012-4.381-2.475-4.373-5.586c0.057-22.98,0.006-45.961,0.134-68.939
	c0.011-2.016-1.519-5.305,1.585-5.885c3.188-0.594,6.666-1.072,9.355,2.596c6.396,8.721,13.257,17.1,19.94,25.609
	C306.479,255.839,315.518,267.323,325.537,280.065z"/>
<path fill-rule="evenodd" clip-rule="evenodd" fill="#61707B" d="M396.294,253.341c1.666,0,3.332,0,4.999,0
	c11.84-0.002,11.854-0.002,11.829,11.982c-0.012,5.32-0.372,10.658-0.041,15.955c0.192,3.072-0.913,4.893-3.132,6.672
	c-14.579,11.691-37.729,13.146-52.501,3.215c-15.453-10.389-22.106-32.502-15.059-50.049c10.563-26.299,41.007-35.195,64.116-18.666
	c1.414,1.01,4.859,1.936,1.935,4.623c-1.913,1.756-2.329,6.668-7.341,2.879c-15.724-11.885-36.489-8.449-46.396,7.17
	c-10.681,16.842-5.124,39.643,11.367,49.246c11.265,6.559,27.962,2.094,35.961-3.373c1.596-1.09,2.47-2.48,2.382-4.596
	c-0.18-4.314-0.246-8.645-0.086-12.959c0.116-3.148-1.224-3.936-4.16-3.828c-5.658,0.207-11.34-0.137-16.991,0.158
	c-3.594,0.186-3.548-1.734-3.604-4.307c-0.061-2.748,0.319-4.432,3.727-4.225c4.316,0.262,8.661,0.063,12.994,0.063
	C396.294,253.315,396.294,253.327,396.294,253.341z"/>
<path fill-rule="evenodd" clip-rule="evenodd" fill="#61707B" d="M171.035,256.153c0-12,0.093-24-0.063-35.998
	c-0.041-3.141,0.676-4.445,4.105-4.279c10.804,0.529,21.69-0.922,32.435,0.844c21.923,3.604,34.929,19.93,33.982,42.273
	c-0.822,19.426-16.699,35.479-37.268,36.926c-9.953,0.699-19.989,0.145-29.983,0.365c-3.346,0.072-3.232-1.834-3.225-4.141
	C171.058,280.147,171.036,268.149,171.035,256.153z M180.218,256.284c0.01,0,0.019,0,0.028,0c0,9.316,0,18.633,0,27.949
	c0.001,1.834-0.324,3.828,2.61,3.646c7.793-0.484,15.611,0.604,23.412-0.758c15.65-2.727,26.558-15.973,25.864-31.77
	c-0.729-16.586-12.054-29.115-27.987-30.484c-6.45-0.553-12.979-0.156-19.456-0.484c-3.438-0.176-4.63,0.893-4.545,4.432
	C180.364,237.968,180.218,247.128,180.218,256.284z"/>
<path fill-rule="evenodd" clip-rule="evenodd" fill="#F36B6B" d="M60.11,289.841c0.417-3.342,1.244-9.109,1.837-14.9
	c1.028-10.023,0.149-11.547-9.095-14.984c-2.525-0.938-1.972-2.703-2.059-4.432c-0.087-1.74,0.116-2.963,2.334-3.654
	c8.51-2.654,9.633-4.34,8.944-13.311c-0.433-5.639-1.508-11.229-1.951-16.867c-1.134-14.453,6.336-22.523,20.208-22.357
	c2.877,0.033,3.872,0.988,3.693,3.766c-0.151,2.352,0.303,4.48-3.363,4.73c-7.396,0.506-9.788,3.273-10.301,10.676
	c-0.337,4.875,0.752,9.607,1.324,14.398c0.895,7.498,1.742,15.021-4.727,20.928c-1.391,1.27-1.547,2.869,0.095,4.314
	c6.098,5.363,5.568,12.42,4.792,19.455c-0.583,5.291-1.838,10.514-1.474,15.891c0.495,7.305,3.013,10.189,10.342,10.699
	c3.729,0.26,3.118,2.471,3.304,4.766c0.23,2.846-0.893,3.787-3.727,3.705C69.96,312.362,59.513,308.257,60.11,289.841z"/>
<path fill-rule="evenodd" clip-rule="evenodd" fill="#61707B" d="M256.916,256.012c0.002,11.811-0.187,23.625,0.107,35.43
	c0.099,3.957-0.933,5.053-4.896,5.068c-3.893,0.014-4.619-1.281-4.595-4.871c0.16-23.795,0.207-47.592-0.016-71.387
	c-0.038-4.129,1.574-4.471,4.924-4.496c3.286-0.025,4.648,0.564,4.568,4.301C256.754,232.038,256.915,244.026,256.916,256.012z"/>
<path fill-rule="evenodd" clip-rule="evenodd" fill="#61707B" d="M458.987,297.749c-10.482,0-20.967-0.08-31.448,0.055
	c-2.715,0.033-3.444-1.076-3.446-3.518c-0.003-2.178-0.056-4.02,2.959-3.957c21.11,0.438,42.23-0.553,63.342,0.508
	c2.793,0.141,3.633,0.902,3.662,3.695c0.036,3.297-1.765,3.258-4.119,3.244C479.621,297.716,469.304,297.751,458.987,297.749z"/>
<path fill-rule="evenodd" clip-rule="evenodd" fill="#FEFEFE" d="M124.349,289.12c-13.361,0.977-31.247-11.768-31.086-32.725
	c0.146-19.037,13.15-33.283,30.958-33.391c17.877-0.107,32.06,14.572,32.022,33.145C156.206,275.182,142.84,288.999,124.349,289.12z
	"/>
<path fill-rule="evenodd" clip-rule="evenodd" fill="#FEFEFE" d="M180.218,256.284c0-9.156,0.146-18.316-0.073-27.469
	c-0.085-3.539,1.106-4.607,4.545-4.432c6.478,0.328,13.006-0.068,19.456,0.484c15.934,1.369,27.259,13.898,27.987,30.484
	c0.693,15.797-10.214,29.043-25.864,31.77c-7.801,1.361-15.619,0.273-23.412,0.758c-2.935,0.182-2.609-1.813-2.61-3.646
	c0-9.316,0-18.633,0-27.949C180.236,256.284,180.228,256.284,180.218,256.284z"/>
</svg>
