<?xml version="1.0" encoding="utf-8"?>
<!-- Generator: Adobe Illustrator 16.0.0, SVG Export Plug-In . SVG Version: 6.00 Build 0)  -->
<!DOCTYPE svg PUBLIC "-//W3C//DTD SVG 1.1//EN" "http://www.w3.org/Graphics/SVG/1.1/DTD/svg11.dtd">
<svg version="1.1" id="Layer_1" xmlns="http://www.w3.org/2000/svg" xmlns:xlink="http://www.w3.org/1999/xlink" x="0px" y="0px"
	 width="512px" height="512px" viewBox="0 0 512 512" enable-background="new 0 0 512 512" xml:space="preserve">
<g>
	<defs>
		<rect id="SVGID_1_" x="39.5" y="40.5" width="433" height="433"/>
	</defs>
	<clipPath id="SVGID_2_">
		<use xlink:href="#SVGID_1_"  overflow="visible"/>
	</clipPath>
	<g clip-path="url(#SVGID_2_)">
		<defs>
			<rect id="SVGID_3_" x="48.251" y="49.252" width="415.497" height="415.496"/>
		</defs>
		<clipPath id="SVGID_4_">
			<use xlink:href="#SVGID_3_"  overflow="visible"/>
		</clipPath>
		<g clip-path="url(#SVGID_4_)">
			
				<image overflow="visible" width="936" height="936" xlink:href="C49B9E5D.png"  transform="matrix(0.4439 0 0 0.4439 48.2515 49.2517)">
			</image>
		</g>
	</g>
	<g clip-path="url(#SVGID_2_)">
		<defs>
			<rect id="SVGID_5_" x="39.5" y="40.5" width="433" height="433"/>
		</defs>
		<clipPath id="SVGID_6_">
			<use xlink:href="#SVGID_5_"  overflow="visible"/>
		</clipPath>
		<path clip-path="url(#SVGID_6_)" fill="#231F20" d="M338.322,154.808c-6.125-5.995-13.037-11.218-20.736-15.669
			c-18.098-10.457-38.401-15.686-60.921-15.686c-32.005,0-59.528,10.068-82.594,30.196l-28.934-27.784
			c29.448-25.366,66.549-38.05,111.291-38.05c31.529,0,59.952,6.902,85.281,20.699c9.305,5.074,17.798,10.884,25.478,17.429"/>
		<path clip-path="url(#SVGID_6_)" fill="#231F20" d="M174.002,359.302c6.125,5.995,13.037,11.218,20.737,15.668
			c18.097,10.458,38.401,15.687,60.921,15.687c32.004,0,59.528-10.067,82.593-30.196l28.934,27.784
			c-29.448,25.367-66.548,38.051-111.289,38.051c-31.531,0-59.953-6.902-85.281-20.7c-9.306-5.074-17.798-10.883-25.479-17.428"/>
		<path clip-path="url(#SVGID_6_)" fill="#231F20" d="M358.408,339.215c5.996-6.125,11.219-13.037,15.67-20.736
			c10.456-18.097,15.685-38.401,15.685-60.921c0-32.006-10.067-59.528-30.195-82.594l27.784-28.933
			c25.366,29.448,38.05,66.549,38.05,111.29c0,31.53-6.901,59.953-20.698,85.281c-5.074,9.305-10.885,17.798-17.43,25.479"/>
		<path clip-path="url(#SVGID_6_)" fill="#231F20" d="M153.915,174.894c-5.995,6.125-11.217,13.037-15.668,20.737
			c-10.457,18.097-15.686,38.401-15.686,60.921c0,32.005,10.068,59.528,30.196,82.594l-27.784,28.934
			c-25.366-29.448-38.05-66.55-38.05-111.29c0-31.53,6.902-59.953,20.698-85.281c5.075-9.306,10.884-17.798,17.429-25.479"/>
		<g opacity="0.8" clip-path="url(#SVGID_6_)">
			<g>
				<defs>
					<rect id="SVGID_7_" x="95.952" y="96.81" width="320.419" height="320.423"/>
				</defs>
				<clipPath id="SVGID_8_">
					<use xlink:href="#SVGID_7_"  overflow="visible"/>
				</clipPath>
				<polygon clip-path="url(#SVGID_8_)" fill="#231F20" points="416.371,403.58 402.717,417.233 95.952,110.467 109.615,96.81 
					167.593,154.791 				"/>
				<polygon clip-path="url(#SVGID_8_)" fill="#231F20" points="402.717,96.81 416.371,110.467 109.615,417.233 95.952,403.58 				
					"/>
			</g>
		</g>
		<path clip-path="url(#SVGID_6_)" fill="#652D90" d="M202.455,88.468l1.484,14.139l4.933,9.04l12.491,10.525l33.865,20.383
			c0,0,16.601,13.153,19.235,18.576c2.63,5.424,16.107,23.34,16.933,36.164c0.825,12.822,3.125,9.865,3.125,9.865l6.085,19.064
			l19.891,23.343v3.292l-21.709-0.825l-20.541-30.245l1.808-15.455l-2.79-12.653l-17.107-27.787l-10.021-17.096l-33.21-21.861
			l-11.505-11.505l-5.759-11.673V88.468H202.455z"/>
		<path clip-path="url(#SVGID_6_)" fill="#652D90" d="M202.455,425.576l1.484-14.14l4.933-9.036l12.491-10.519l33.865-20.389
			c0,0,16.601-13.153,19.235-18.575c2.63-5.427,16.107-23.349,16.933-36.168c0.825-12.82,3.125-9.861,3.125-9.861l6.085-19.072
			l19.891-23.34v-3.287l-21.709,0.822l-20.541,30.244l1.808,15.455l-2.79,12.655l-17.107,27.779l-10.021,17.098l-33.21,21.869
			l-11.505,11.505l-5.759,11.668v15.291H202.455z"/>
		<polygon clip-path="url(#SVGID_6_)" fill="#652D90" points="115.009,255.27 119.821,255.27 116.759,252.201 118.512,250.228 
			122.459,248.036 142.625,255.27 378.902,255.27 397.315,256.639 378.902,258.121 142.625,258.121 122.459,265.352 
			118.512,263.161 116.759,261.189 119.821,258.121 115.009,258.121 		"/>
	</g>
</g>
</svg>
